<?xml version="1.0" encoding="UTF-8" standalone="no"?><!DOCTYPE svg PUBLIC "-//W3C//DTD SVG 1.1//EN" "http://www.w3.org/Graphics/SVG/1.1/DTD/svg11.dtd"><svg width="100%" height="100%" viewBox="0 0 59056 7579" version="1.1" xmlns="http://www.w3.org/2000/svg" xmlns:xlink="http://www.w3.org/1999/xlink" xml:space="preserve" xmlns:serif="http://www.serif.com/" style="fill-rule:evenodd;clip-rule:evenodd;stroke-linejoin:round;stroke-miterlimit:2;"><g><g><g><g transform="matrix(10391.486228,0,0,10391.486228,8473.699721,7471.478598)"><path d="M0.3,0.01c-0.047,0 -0.089,-0.006 -0.126,-0.018c-0.037,-0.012 -0.073,-0.032 -0.107,-0.062c-0.009,-0.007 -0.015,-0.016 -0.02,-0.025c-0.005,-0.009 -0.007,-0.019 -0.007,-0.028c0,-0.015 0.006,-0.029 0.017,-0.041c0.011,-0.012 0.025,-0.018 0.042,-0.017c0.013,-0 0.024,0.004 0.034,0.012c0.025,0.021 0.051,0.036 0.076,0.047c0.025,0.011 0.056,0.016 0.092,0.016c0.025,0 0.047,-0.004 0.068,-0.012c0.021,-0.008 0.037,-0.018 0.05,-0.031c0.013,-0.013 0.019,-0.028 0.019,-0.045c0,-0.02 -0.006,-0.037 -0.018,-0.051c-0.012,-0.014 -0.03,-0.026 -0.055,-0.036c-0.025,-0.01 -0.056,-0.017 -0.094,-0.022c-0.036,-0.005 -0.068,-0.014 -0.095,-0.025c-0.027,-0.011 -0.05,-0.025 -0.069,-0.042c-0.018,-0.017 -0.032,-0.037 -0.041,-0.06c-0.009,-0.023 -0.014,-0.049 -0.014,-0.078c0,-0.043 0.011,-0.08 0.034,-0.111c0.022,-0.031 0.053,-0.054 0.091,-0.07c0.038,-0.016 0.08,-0.024 0.126,-0.024c0.043,0 0.084,0.006 0.12,0.019c0.037,0.013 0.067,0.029 0.091,0.049c0.019,0.015 0.029,0.033 0.029,0.053c0,0.015 -0.006,0.028 -0.017,0.04c-0.011,0.012 -0.025,0.018 -0.04,0.018c-0.01,0 -0.019,-0.003 -0.027,-0.009c-0.011,-0.009 -0.025,-0.018 -0.043,-0.026c-0.018,-0.008 -0.037,-0.015 -0.057,-0.021c-0.02,-0.006 -0.039,-0.008 -0.056,-0.008c-0.029,0 -0.053,0.004 -0.072,0.011c-0.02,0.007 -0.034,0.017 -0.045,0.03c-0.01,0.013 -0.015,0.027 -0.015,0.044c0,0.02 0.006,0.036 0.017,0.049c0.012,0.013 0.028,0.023 0.051,0.031c0.022,0.008 0.048,0.014 0.079,0.02c0.04,0.007 0.075,0.016 0.105,0.026c0.03,0.01 0.056,0.023 0.076,0.038c0.02,0.016 0.035,0.035 0.045,0.059c0.01,0.024 0.015,0.053 0.015,0.087c0,0.043 -0.012,0.081 -0.036,0.112c-0.024,0.031 -0.055,0.055 -0.095,0.072c-0.039,0.017 -0.081,0.025 -0.127,0.025Z" style="fill:#fff;fill-rule:nonzero;"/></g><g transform="matrix(10391.486228,0,0,10391.486228,14677.416999,7471.478598)"><path d="M0.071,-0.525l0.237,0c0.016,0 0.029,0.005 0.04,0.016c0.011,0.011 0.016,0.024 0.016,0.04c0,0.015 -0.005,0.028 -0.016,0.039c-0.011,0.01 -0.024,0.015 -0.04,0.015l-0.237,0c-0.016,0 -0.029,-0.005 -0.04,-0.016c-0.011,-0.011 -0.016,-0.024 -0.016,-0.04c0,-0.015 0.005,-0.028 0.016,-0.039c0.011,-0.01 0.024,-0.015 0.04,-0.015Zm0.107,-0.125c0.017,0 0.032,0.006 0.043,0.017c0.011,0.012 0.017,0.026 0.017,0.044l0,0.445c0,0.009 0.002,0.017 0.005,0.023c0.004,0.006 0.009,0.01 0.015,0.013c0.006,0.003 0.013,0.004 0.021,0.004c0.008,-0 0.015,-0.001 0.022,-0.004c0.007,-0.003 0.014,-0.005 0.023,-0.005c0.009,0 0.018,0.004 0.026,0.013c0.008,0.009 0.012,0.021 0.011,0.036c0,0.019 -0.01,0.034 -0.03,0.046c-0.02,0.012 -0.042,0.018 -0.066,0.018c-0.014,-0 -0.029,-0.001 -0.047,-0.004c-0.017,-0.002 -0.033,-0.008 -0.048,-0.017c-0.015,-0.009 -0.028,-0.023 -0.038,-0.041c-0.01,-0.019 -0.015,-0.044 -0.015,-0.077l0,-0.45c0,-0.017 0.006,-0.032 0.018,-0.044c0.012,-0.012 0.026,-0.017 0.043,-0.017Z" style="fill:#fff;fill-rule:nonzero;"/></g><g transform="matrix(10391.486228,0,0,10391.486228,18927.534867,7471.478598)"><path d="M0.503,-0.545c0.017,0 0.032,0.006 0.043,0.017c0.011,0.011 0.017,0.026 0.017,0.044l0,0.423c0,0.017 -0.006,0.032 -0.017,0.043c-0.011,0.012 -0.026,0.018 -0.043,0.018c-0.017,-0 -0.032,-0.006 -0.043,-0.018c-0.011,-0.012 -0.017,-0.026 -0.017,-0.043l0,-0.049l0.022,0.009c0,0.009 -0.005,0.019 -0.014,0.032c-0.009,0.012 -0.022,0.025 -0.038,0.037c-0.016,0.012 -0.035,0.022 -0.057,0.031c-0.022,0.008 -0.045,0.012 -0.07,0.012c-0.046,0 -0.088,-0.012 -0.125,-0.036c-0.037,-0.024 -0.067,-0.056 -0.089,-0.098c-0.022,-0.042 -0.032,-0.089 -0.032,-0.144c0,-0.055 0.011,-0.103 0.032,-0.145c0.022,-0.042 0.051,-0.074 0.088,-0.098c0.037,-0.024 0.077,-0.035 0.122,-0.035c0.029,0 0.055,0.004 0.079,0.013c0.024,0.009 0.045,0.02 0.062,0.033c0.018,0.013 0.031,0.027 0.041,0.04c0.01,0.014 0.015,0.025 0.015,0.035l-0.036,0.013l0,-0.073c0,-0.017 0.006,-0.032 0.017,-0.043c0.011,-0.012 0.026,-0.018 0.043,-0.018Zm-0.202,0.445c0.029,-0 0.055,-0.007 0.077,-0.022c0.022,-0.015 0.039,-0.035 0.051,-0.06c0.012,-0.025 0.019,-0.054 0.019,-0.085c0,-0.032 -0.006,-0.061 -0.019,-0.086c-0.012,-0.025 -0.029,-0.045 -0.051,-0.06c-0.022,-0.015 -0.048,-0.022 -0.077,-0.022c-0.029,0 -0.054,0.007 -0.076,0.022c-0.022,0.015 -0.039,0.035 -0.051,0.06c-0.012,0.025 -0.019,0.054 -0.019,0.086c0,0.031 0.006,0.06 0.019,0.085c0.012,0.025 0.029,0.045 0.051,0.06c0.022,0.015 0.047,0.022 0.076,0.022Z" style="fill:#fff;fill-rule:nonzero;"/></g><g transform="matrix(10391.486228,0,0,10391.486228,25557.30308,7471.478598)"><path d="M0.503,-0.545c0.017,0 0.032,0.006 0.043,0.017c0.011,0.011 0.017,0.026 0.017,0.044l0,0.423c0,0.017 -0.006,0.032 -0.017,0.043c-0.011,0.012 -0.026,0.018 -0.043,0.018c-0.017,-0 -0.032,-0.006 -0.043,-0.018c-0.011,-0.012 -0.017,-0.026 -0.017,-0.043l0,-0.049l0.022,0.009c0,0.009 -0.005,0.019 -0.014,0.032c-0.009,0.012 -0.022,0.025 -0.038,0.037c-0.016,0.012 -0.035,0.022 -0.057,0.031c-0.022,0.008 -0.045,0.012 -0.07,0.012c-0.046,0 -0.088,-0.012 -0.125,-0.036c-0.037,-0.024 -0.067,-0.056 -0.089,-0.098c-0.022,-0.042 -0.032,-0.089 -0.032,-0.144c0,-0.055 0.011,-0.103 0.032,-0.145c0.022,-0.042 0.051,-0.074 0.088,-0.098c0.037,-0.024 0.077,-0.035 0.122,-0.035c0.029,0 0.055,0.004 0.079,0.013c0.024,0.009 0.045,0.02 0.062,0.033c0.018,0.013 0.031,0.027 0.041,0.04c0.01,0.014 0.015,0.025 0.015,0.035l-0.036,0.013l0,-0.073c0,-0.017 0.006,-0.032 0.017,-0.043c0.011,-0.012 0.026,-0.018 0.043,-0.018Zm-0.202,0.445c0.029,-0 0.055,-0.007 0.077,-0.022c0.022,-0.015 0.039,-0.035 0.051,-0.06c0.012,-0.025 0.019,-0.054 0.019,-0.085c0,-0.032 -0.006,-0.061 -0.019,-0.086c-0.012,-0.025 -0.029,-0.045 -0.051,-0.06c-0.022,-0.015 -0.048,-0.022 -0.077,-0.022c-0.029,0 -0.054,0.007 -0.076,0.022c-0.022,0.015 -0.039,0.035 -0.051,0.06c-0.012,0.025 -0.019,0.054 -0.019,0.086c0,0.031 0.006,0.06 0.019,0.085c0.012,0.025 0.029,0.045 0.051,0.06c0.022,0.015 0.047,0.022 0.076,0.022Z" style="fill:#fff;fill-rule:nonzero;"/></g><g transform="matrix(10391.486228,0,0,10391.486228,32083.156431,7471.478598)"><path d="M0.346,-0.545c0.053,0 0.093,0.013 0.118,0.038c0.025,0.026 0.042,0.059 0.05,0.1l-0.017,-0.009l0.008,-0.016c0.008,-0.015 0.02,-0.032 0.037,-0.049c0.017,-0.018 0.037,-0.033 0.06,-0.045c0.024,-0.012 0.05,-0.019 0.08,-0.019c0.048,0 0.085,0.01 0.109,0.031c0.025,0.021 0.042,0.048 0.051,0.083c0.009,0.034 0.014,0.073 0.014,0.114l0,0.256c-0,0.017 -0.006,0.032 -0.017,0.043c-0.011,0.012 -0.026,0.018 -0.043,0.018c-0.017,-0 -0.032,-0.006 -0.043,-0.018c-0.011,-0.012 -0.017,-0.026 -0.017,-0.043l0,-0.256c0,-0.022 -0.003,-0.042 -0.008,-0.059c-0.005,-0.018 -0.015,-0.032 -0.029,-0.042c-0.014,-0.011 -0.034,-0.016 -0.06,-0.016c-0.025,0 -0.047,0.005 -0.065,0.016c-0.018,0.011 -0.032,0.025 -0.041,0.042c-0.009,0.018 -0.013,0.037 -0.013,0.059l0,0.256c0,0.017 -0.006,0.032 -0.017,0.043c-0.011,0.012 -0.026,0.018 -0.043,0.018c-0.017,-0 -0.032,-0.006 -0.043,-0.018c-0.011,-0.012 -0.017,-0.026 -0.017,-0.043l0,-0.256c0,-0.022 -0.003,-0.042 -0.008,-0.059c-0.005,-0.018 -0.015,-0.032 -0.029,-0.042c-0.014,-0.011 -0.034,-0.016 -0.06,-0.016c-0.025,0 -0.047,0.005 -0.065,0.016c-0.018,0.011 -0.032,0.025 -0.041,0.042c-0.009,0.018 -0.014,0.037 -0.014,0.059l0,0.256c-0,0.017 -0.006,0.032 -0.017,0.043c-0.011,0.012 -0.026,0.018 -0.043,0.018c-0.017,-0 -0.032,-0.006 -0.043,-0.018c-0.011,-0.012 -0.017,-0.026 -0.017,-0.043l0,-0.413c0,-0.017 0.006,-0.032 0.017,-0.043c0.011,-0.012 0.026,-0.018 0.043,-0.018c0.017,0 0.032,0.006 0.043,0.018c0.011,0.012 0.017,0.026 0.017,0.043l0,0.043l-0.015,-0.003c0.006,-0.011 0.014,-0.024 0.025,-0.037c0.011,-0.013 0.024,-0.025 0.039,-0.036c0.015,-0.011 0.032,-0.02 0.051,-0.027c0.019,-0.007 0.039,-0.011 0.061,-0.011Z" style="fill:#fff;fill-rule:nonzero;"/></g><g transform="matrix(10391.486228,0,0,10391.486228,41664.106733,7471.478598)"><path d="M0.178,-0.061c0,0.017 -0.006,0.032 -0.017,0.043c-0.011,0.012 -0.026,0.018 -0.043,0.018c-0.017,-0 -0.032,-0.006 -0.043,-0.018c-0.011,-0.012 -0.017,-0.026 -0.017,-0.043l0,-0.413c0,-0.017 0.006,-0.032 0.017,-0.043c0.011,-0.012 0.026,-0.018 0.043,-0.018c0.017,0 0.032,0.006 0.043,0.018c0.011,0.012 0.017,0.026 0.017,0.043l0,0.413Zm-0.061,-0.539c-0.023,-0 -0.039,-0.004 -0.048,-0.011c-0.009,-0.007 -0.014,-0.02 -0.014,-0.039l0,-0.019c0,-0.019 0.005,-0.033 0.016,-0.039c0.01,-0.007 0.026,-0.01 0.048,-0.01c0.023,0 0.04,0.004 0.049,0.011c0.009,0.007 0.014,0.02 0.014,0.039l0,0.019c-0,0.019 -0.005,0.032 -0.015,0.039c-0.01,0.007 -0.026,0.011 -0.049,0.011Z" style="fill:#fff;fill-rule:nonzero;"/></g><g transform="matrix(10391.486228,0,0,10391.486228,44116.497483,7471.478598)"><path d="M0.351,-0.545c0.049,0 0.087,0.01 0.112,0.031c0.026,0.021 0.043,0.048 0.053,0.083c0.01,0.034 0.015,0.073 0.015,0.114l0,0.256c0,0.017 -0.006,0.032 -0.017,0.043c-0.011,0.012 -0.026,0.018 -0.043,0.018c-0.017,-0 -0.032,-0.006 -0.043,-0.018c-0.011,-0.012 -0.017,-0.026 -0.017,-0.043l0,-0.256c0,-0.022 -0.003,-0.042 -0.009,-0.059c-0.006,-0.018 -0.016,-0.032 -0.031,-0.042c-0.015,-0.011 -0.036,-0.016 -0.063,-0.016c-0.027,0 -0.049,0.005 -0.068,0.016c-0.018,0.011 -0.032,0.025 -0.042,0.042c-0.01,0.018 -0.015,0.037 -0.015,0.059l0,0.256c-0,0.017 -0.006,0.032 -0.017,0.043c-0.011,0.012 -0.026,0.018 -0.043,0.018c-0.017,-0 -0.032,-0.006 -0.043,-0.018c-0.011,-0.012 -0.017,-0.026 -0.017,-0.043l0,-0.413c0,-0.017 0.006,-0.032 0.017,-0.043c0.011,-0.012 0.026,-0.018 0.043,-0.018c0.017,0 0.032,0.006 0.043,0.018c0.011,0.012 0.017,0.026 0.017,0.043l0,0.043l-0.015,-0.003c0.006,-0.011 0.015,-0.024 0.026,-0.037c0.011,-0.013 0.025,-0.025 0.04,-0.036c0.015,-0.011 0.033,-0.02 0.052,-0.027c0.019,-0.007 0.04,-0.011 0.063,-0.011Z" style="fill:#fff;fill-rule:nonzero;"/></g><g transform="matrix(10391.486228,0,0,10391.486228,50309.823274,7471.478598)"><path d="M0.503,-0.545c0.017,0 0.032,0.006 0.043,0.017c0.011,0.011 0.017,0.026 0.017,0.044l0,0.423c0,0.017 -0.006,0.032 -0.017,0.043c-0.011,0.012 -0.026,0.018 -0.043,0.018c-0.017,-0 -0.032,-0.006 -0.043,-0.018c-0.011,-0.012 -0.017,-0.026 -0.017,-0.043l0,-0.049l0.022,0.009c0,0.009 -0.005,0.019 -0.014,0.032c-0.009,0.012 -0.022,0.025 -0.038,0.037c-0.016,0.012 -0.035,0.022 -0.057,0.031c-0.022,0.008 -0.045,0.012 -0.07,0.012c-0.046,0 -0.088,-0.012 -0.125,-0.036c-0.037,-0.024 -0.067,-0.056 -0.089,-0.098c-0.022,-0.042 -0.032,-0.089 -0.032,-0.144c0,-0.055 0.011,-0.103 0.032,-0.145c0.022,-0.042 0.051,-0.074 0.088,-0.098c0.037,-0.024 0.077,-0.035 0.122,-0.035c0.029,0 0.055,0.004 0.079,0.013c0.024,0.009 0.045,0.02 0.062,0.033c0.018,0.013 0.031,0.027 0.041,0.04c0.01,0.014 0.015,0.025 0.015,0.035l-0.036,0.013l0,-0.073c0,-0.017 0.006,-0.032 0.017,-0.043c0.011,-0.012 0.026,-0.018 0.043,-0.018Zm-0.202,0.445c0.029,-0 0.055,-0.007 0.077,-0.022c0.022,-0.015 0.039,-0.035 0.051,-0.06c0.012,-0.025 0.019,-0.054 0.019,-0.085c0,-0.032 -0.006,-0.061 -0.019,-0.086c-0.012,-0.025 -0.029,-0.045 -0.051,-0.06c-0.022,-0.015 -0.048,-0.022 -0.077,-0.022c-0.029,0 -0.054,0.007 -0.076,0.022c-0.022,0.015 -0.039,0.035 -0.051,0.06c-0.012,0.025 -0.019,0.054 -0.019,0.086c0,0.031 0.006,0.06 0.019,0.085c0.012,0.025 0.029,0.045 0.051,0.06c0.022,0.015 0.047,0.022 0.076,0.022Z" style="fill:#fff;fill-rule:nonzero;"/></g><g transform="matrix(10391.486228,0,0,10391.486228,56835.676625,7471.478598)"></g><g transform="matrix(10391.486228,0,0,10391.486228,56519.595471,7263.101254)"><path d="M0.149,0.014c-0.027,0 -0.05,-0.009 -0.068,-0.027c-0.018,-0.018 -0.028,-0.041 -0.028,-0.068c0,-0.028 0.009,-0.051 0.028,-0.068c0.018,-0.018 0.041,-0.027 0.068,-0.026c0.027,-0 0.049,0.009 0.068,0.027c0.018,0.018 0.027,0.041 0.027,0.069c0,0.028 -0.009,0.051 -0.027,0.068c-0.018,0.018 -0.041,0.026 -0.068,0.026Z" style="fill:#fff;fill-rule:nonzero;"/></g><g transform="matrix(10391.486228,0,0,10391.486228,59616.258367,7263.101254)"></g></g><g><path d="M3984.427,0l3984.427,2894.855l-1521.916,4683.975l-4925.022,0l-1521.916,-4683.975l3984.427,-2894.855Z" style="fill:#fff;"/><g transform="matrix(14959.042472,0,0,14959.042472,1755.529404,5489.976849)"><path d="M0.149,0.014c-0.027,0 -0.05,-0.009 -0.068,-0.027c-0.018,-0.018 -0.028,-0.041 -0.028,-0.068c0,-0.028 0.009,-0.051 0.028,-0.068c0.018,-0.018 0.041,-0.027 0.068,-0.026c0.027,-0 0.049,0.009 0.068,0.027c0.018,0.018 0.027,0.041 0.027,0.069c0,0.028 -0.009,0.051 -0.027,0.068c-0.018,0.018 -0.041,0.026 -0.068,0.026Z" style="fill:#4f2eb0;fill-rule:nonzero;"/></g><g transform="matrix(14959.042472,0,0,14959.042472,6213.32406,5489.976849)"></g></g></g></g></svg>