<?xml version="1.0" encoding="utf-8"?>
<!-- Generator: Adobe Illustrator 24.1.0, SVG Export Plug-In . SVG Version: 6.00 Build 0)  -->
<svg version="1.1" id="Layer_1" xmlns="http://www.w3.org/2000/svg" xmlns:xlink="http://www.w3.org/1999/xlink" x="0px" y="0px"
	 viewBox="0 0 320 320" style="enable-background:new 0 0 320 320;" xml:space="preserve">
<style type="text/css">
	.st0{fill:url(#SVGID_1_);}
	.st1{fill:url(#SVGID_2_);}
	.st2{fill:url(#SVGID_3_);}
	.st3{fill:url(#SVGID_4_);}
</style>
<g id="Layer">
	<linearGradient id="SVGID_1_" gradientUnits="userSpaceOnUse" x1="223.0547" y1="93.0644" x2="89.5281" y2="251.4021">
		<stop  offset="0" style="stop-color:#C14E97"/>
		<stop  offset="0.1613" style="stop-color:#C524C5"/>
		<stop  offset="0.2874" style="stop-color:#C70AE1"/>
		<stop  offset="0.3597" style="stop-color:#C800EC"/>
		<stop  offset="0.4079" style="stop-color:#BB00E4"/>
		<stop  offset="0.4962" style="stop-color:#9A00CD"/>
		<stop  offset="0.614" style="stop-color:#6501AA"/>
		<stop  offset="0.7081" style="stop-color:#35018A"/>
		<stop  offset="0.9903" style="stop-color:#35018A"/>
	</linearGradient>
	<path class="st0" d="M145.55,66.94c8.84-5.71,20.2-5.7,29.03,0.01l76.78,49.69c10.08,6.53,14.57,18.97,10.98,30.43l-28.68,91.53
		c-3.49,11.15-13.82,18.74-25.51,18.74h-96.04c-11.66,0-21.97-7.56-25.49-18.67l-28.94-91.55c-3.63-11.48,0.87-23.97,10.98-30.51
		L145.55,66.94z M190.63,137.8c-16.83-16.83-44.12-16.83-60.94,0s-16.83,44.12,0,60.94s44.11,16.83,60.94,0
		S207.46,154.63,190.63,137.8z"/>
	<g>
		<linearGradient id="SVGID_2_" gradientUnits="userSpaceOnUse" x1="177.8308" y1="65.4" x2="130.2115" y2="263.2357">
			<stop  offset="0" style="stop-color:#EE64F8"/>
			<stop  offset="1" style="stop-color:#6F2B92"/>
		</linearGradient>
		<path class="st1" d="M145.51,66.87c2.81-1.79,5.94-3.12,9.21-3.79c3.27-0.66,6.67-0.76,9.97-0.17c1.66,0.25,3.27,0.74,4.85,1.29
			c1.55,0.62,3.1,1.29,4.51,2.19c2.84,1.76,5.61,3.58,8.42,5.37l33.61,21.56l33.61,21.56l2.1,1.35c0.69,0.5,1.41,0.95,2.07,1.49
			c1.32,1.07,2.58,2.22,3.68,3.52c2.22,2.57,4,5.55,5.12,8.76c1.13,3.21,1.66,6.64,1.56,10.05c0.01,0.85-0.13,1.7-0.19,2.55
			c-0.12,0.84-0.28,1.68-0.44,2.52c-0.22,0.82-0.42,1.66-0.67,2.46l-0.74,2.38l-23.57,76.3l-2.95,9.54
			c-0.5,1.59-0.95,3.16-1.56,4.81c-0.29,0.82-0.69,1.59-1.03,2.38c-0.41,0.76-0.81,1.53-1.26,2.27c-1.83,2.94-4.2,5.55-6.97,7.65
			c-2.77,2.09-5.95,3.63-9.29,4.57c-0.83,0.27-1.69,0.4-2.54,0.59c-0.85,0.16-1.72,0.23-2.58,0.35c-0.86,0.03-1.75,0.09-2.59,0.1
			l-2.5,0.01l-9.98,0.04l-19.96,0.07l-39.93-0.16l-19.96-0.08c-1.67-0.02-3.3,0.02-5.06-0.09c-0.87-0.02-1.72-0.19-2.58-0.28
			c-0.85-0.15-1.7-0.33-2.54-0.53c-3.35-0.88-6.53-2.37-9.34-4.38c-2.82-2.01-5.2-4.58-7.08-7.47c-0.96-1.44-1.71-3-2.39-4.58
			c-0.29-0.81-0.6-1.63-0.86-2.43l-0.74-2.38l-5.94-19.06l-11.89-38.12l-5.94-19.06l-2.97-9.53c-0.49-1.6-1.02-3.15-1.43-4.82
			c-0.43-1.65-0.65-3.34-0.78-5.03c-0.36-6.78,1.85-13.68,6.21-18.88c0.56-0.64,1.09-1.3,1.71-1.87l0.91-0.89
			c0.31-0.28,0.65-0.54,0.97-0.82c0.63-0.56,1.33-1.05,2.02-1.53c0.69-0.5,1.39-0.93,2.09-1.38l8.41-5.38L145.51,66.87z M145.59,67
			l-67.06,43.36l-8.38,5.42c-0.7,0.46-1.41,0.89-2.07,1.38c-0.68,0.47-1.36,0.95-1.98,1.5c-0.32,0.27-0.64,0.53-0.95,0.81
			l-0.88,0.88c-0.61,0.56-1.12,1.22-1.67,1.84c-4.25,5.11-6.38,11.87-6,18.48c0.14,1.65,0.35,3.3,0.78,4.9
			c0.4,1.61,0.95,3.18,1.44,4.77l3.01,9.52l6.02,19.03l12.05,38.07l6.02,19.03l0.75,2.38c0.26,0.79,0.55,1.56,0.84,2.34
			c0.66,1.52,1.39,3.01,2.32,4.38c1.81,2.77,4.11,5.23,6.82,7.14c2.7,1.91,5.75,3.33,8.96,4.16c0.81,0.18,1.62,0.35,2.43,0.49
			c0.82,0.08,1.64,0.24,2.47,0.26c1.65,0.1,3.32,0.06,4.98,0.06l19.96,0l39.93-0.01l19.96,0l9.98,0l2.5,0
			c0.83-0.01,1.65-0.06,2.48-0.09c0.82-0.11,1.65-0.17,2.46-0.32c0.81-0.18,1.63-0.29,2.42-0.55c3.19-0.89,6.22-2.34,8.87-4.32
			c2.64-1.99,4.92-4.47,6.68-7.27c0.44-0.7,0.82-1.44,1.22-2.16c0.33-0.76,0.71-1.5,0.99-2.27c0.59-1.55,1.06-3.15,1.56-4.73
			l2.99-9.53l23.89-76.2l0.75-2.38c0.24-0.79,0.44-1.6,0.66-2.4c0.15-0.81,0.32-1.63,0.43-2.45c0.06-0.83,0.2-1.65,0.2-2.48
			c0.11-3.31-0.39-6.64-1.47-9.77c-1.08-3.13-2.8-6.04-4.95-8.55c-1.06-1.27-2.29-2.4-3.57-3.45c-1.3-1.02-2.7-1.93-4.1-2.82
			l-33.52-21.7l-33.52-21.7c-2.8-1.8-5.57-3.64-8.39-5.4c-1.4-0.9-2.92-1.57-4.46-2.19c-1.56-0.55-3.15-1.04-4.8-1.3
			c-3.27-0.6-6.64-0.51-9.89,0.12C151.5,63.92,148.39,65.23,145.59,67z"/>
		<linearGradient id="SVGID_3_" gradientUnits="userSpaceOnUse" x1="170.4108" y1="125.6336" x2="149.8875" y2="210.8982">
			<stop  offset="0" style="stop-color:#EE64F8"/>
			<stop  offset="1" style="stop-color:#6F2B92"/>
		</linearGradient>
		<path class="st2" d="M190.58,137.85c-4.01-3.95-8.79-7.12-13.99-9.24c-5.2-2.12-10.82-3.2-16.43-3.18
			c-5.61,0.04-11.19,1.26-16.31,3.46c-5.13,2.2-9.78,5.43-13.66,9.4c-3.86,3.99-6.93,8.71-8.96,13.84c-2.05,5.12-3.02,10.64-3,16.13
			c0.03,5.49,1.15,10.96,3.28,16.01c2.12,5.05,5.25,9.65,9.13,13.51c3.85,3.88,8.46,7.01,13.51,9.13
			c5.05,2.13,10.52,3.25,16.01,3.28c5.49,0.04,11-0.94,16.13-2.99c5.13-2.03,9.85-5.1,13.84-8.97c3.97-3.88,7.2-8.53,9.4-13.66
			c2.2-5.12,3.42-10.7,3.46-16.31c0.03-5.61-1.05-11.22-3.18-16.43C197.7,146.64,194.53,141.86,190.58,137.85z M190.69,137.74
			c3.99,4,7.2,8.78,9.36,14c2.17,5.22,3.29,10.87,3.3,16.52c0,5.65-1.12,11.31-3.28,16.53c-2.16,5.23-5.36,10.01-9.35,14.02
			c-4,3.99-8.79,7.21-14.01,9.37c-5.22,2.17-10.88,3.29-16.54,3.3c-5.66,0-11.32-1.12-16.54-3.28c-5.23-2.16-10.02-5.37-14.03-9.36
			c-3.99-4.01-7.21-8.8-9.36-14.03c-2.17-5.23-3.28-10.89-3.28-16.54c0.01-5.66,1.13-11.31,3.3-16.54
			c2.16-5.23,5.38-10.01,9.37-14.01c4.01-3.99,8.79-7.2,14.02-9.35c5.22-2.16,10.88-3.28,16.53-3.28c5.65,0.01,11.3,1.13,16.52,3.3
			C181.91,130.54,186.69,133.75,190.69,137.74z"/>
	</g>
</g>
<linearGradient id="SVGID_4_" gradientUnits="userSpaceOnUse" x1="88.0819" y1="244.5751" x2="231.8125" y2="95.4385">
	<stop  offset="0.2644" style="stop-color:#4D357F"/>
	<stop  offset="0.2996" style="stop-color:#563187"/>
	<stop  offset="0.5147" style="stop-color:#871CB2"/>
	<stop  offset="0.7037" style="stop-color:#AA0DD2"/>
	<stop  offset="0.8575" style="stop-color:#C003E5"/>
	<stop  offset="0.9568" style="stop-color:#C800EC"/>
</linearGradient>
<path class="st3" d="M225.29,239.49c-6.94-17.79-17.01-34.17-27.58-50.07c-1.88,3.34-4.24,6.48-7.08,9.32
	c-16.83,16.83-44.11,16.83-60.94,0c-16.83-16.83-16.83-44.11,0-60.94c2.35-2.35,4.92-4.36,7.62-6.06
	c-21.77-6.33-43.68-12.16-65.87-16.92l-2.78,1.79c-10.12,6.53-14.61,19.03-10.98,30.51l28.94,91.55
	c3.52,11.12,13.83,18.67,25.49,18.67h96.04c7.91,0,15.19-3.49,20.16-9.19C227.41,245.25,226.41,242.36,225.29,239.49z"/>
</svg>
