<?xml version="1.0" encoding="UTF-8" standalone="no"?>
<!-- Created with Inkscape (http://www.inkscape.org/) -->

<svg
   version="1.1"
   id="svg1"
   width="7000"
   height="3000"
   viewBox="0 0 7000 3000"
   sodipodi:docname="vecteezy_hand-drawn-of-tangle-scrawl-sketch-abstract-scribble-chaos_6054917-0.eps"
   xmlns:inkscape="http://www.inkscape.org/namespaces/inkscape"
   xmlns:sodipodi="http://sodipodi.sourceforge.net/DTD/sodipodi-0.dtd"
   xmlns="http://www.w3.org/2000/svg"
   xmlns:svg="http://www.w3.org/2000/svg">
  <defs
     id="defs1" />
  <sodipodi:namedview
     id="namedview1"
     pagecolor="#ffffff"
     bordercolor="#000000"
     borderopacity="0.25"
     inkscape:showpageshadow="2"
     inkscape:pageopacity="0.0"
     inkscape:pagecheckerboard="0"
     inkscape:deskcolor="#d1d1d1">
    <inkscape:page
       x="0"
       y="0"
       inkscape:label="1"
       id="page1"
       width="7000"
       height="3000"
       margin="0"
       bleed="0" />
  </sodipodi:namedview>
  <g
     id="g1"
     inkscape:groupmode="layer"
     inkscape:label="1">
    <path
       id="path1"
       d="M 0,0 H 52500 V 22500 H 0 Z"
       style="fill:none"
       transform="matrix(0.13333333,0,0,-0.13333333,0,3000)" />
    <path
       id="path2"
       d="m 4443.95,11410.4 c 136.83,28 274.64,50.8 409.8,84.8 160.39,40.3 318.44,89.8 477.42,135 5.35,1.4 11.25,1.4 16.72,1.4 402.77,-9.5 766.13,187.1 1165.55,214.6 399.29,27.5 794.06,113.7 1192.22,163.3 560.28,69.9 1120.79,141.2 1683.01,190.5 483.09,42.4 968.63,55.7 1453.23,80.1 961,48.5 1918,-8.4 2873.6,-105.1 768.1,-77.7 1535.2,-167 2304.6,-227.9 371.5,-29.3 747.3,-5.1 1118.7,-5.1 56.1,365.2 111.7,750.5 175.5,1134.3 117,701.9 416,1335.1 740,1959.9 57.3,110.6 69.8,244.8 100.9,368.4 87.7,348.8 218.5,674.1 426.9,974.6 310,447 660,844.8 1124.5,1137.2 510.8,321.4 1069.2,495.8 1660.7,593.5 237.2,39.3 467.5,127.1 695.9,207.6 51.3,18.1 98.5,91.1 118.6,149 267.3,770.1 859.8,1104.2 1619.1,1215.7 1255.8,184.2 2411.3,-122.5 3523.8,-690.9 426.6,-218 830.8,-464.3 1186.6,-776.6 386.2,-338.8 723.2,-733.1 901.3,-1225.6 127,-351.8 370.4,-515.2 719.7,-579.9 703,-130.4 1328.8,-407 1748,-1019.5 292.7,-427.4 436.3,-913.9 498.9,-1425.4 1.4,-5.5 1.4,-11.2 1.4,-16.9 -21.9,-417.4 34.2,-791.9 335.8,-1134.4 303.3,-344.2 447.7,-783.5 452.7,-1254.9 0,-26.3 14.1,-52.2 26.3,-94.8 401.8,38.3 801.8,70.1 1200,116.2 562.8,65.4 1123.7,74 1690.2,38.5 509.2,-32 1022.2,-23 1533.1,-8.9 598.2,16.5 1195.6,72.3 1793.6,85.4 848.8,18.5 1698,14.7 2546.9,18.4 911.4,3.7 1822.8,12.2 2734.2,5.6 765,-5.5 1530.4,-22.1 2294.9,-49.2 300.9,-10.6 600.4,-61 899.9,-97.8 57.9,-7.3 113,-36.3 169.3,-55.4 2.1,-19.5 3.9,-39 6.1,-58.7 -87.7,-24.7 -175.4,-71 -262.8,-70.6 -1110.7,5 -2221.4,18.9 -3332.1,26 -870.4,5.6 -1741.1,12.6 -2611.5,5.3 -1025.1,-8.4 -2049.9,-25.6 -3074.5,-49.9 -782.7,-18.7 -1564.7,-66.4 -2347.5,-78.2 -464.2,-7.1 -930.5,62.3 -1393.1,39.7 -579.8,-28.3 -1156.9,-114.3 -1734.7,-179.1 -108.3,-12 -162.4,-68.3 -193.9,-190.1 -123.3,-477.6 -362,-897.6 -674.8,-1280.23 -264.1,-323.08 -516,-656.56 -759.6,-995.35 -64.2,-89.53 -65.8,-221.44 -116.6,-323.75 -166.1,-333.59 -311.9,-682.65 -520,-988.75 -386.8,-568.24 -918.4,-983.08 -1528.3,-1299.14 -36.3,-18.94 -63.1,-92.66 -62.2,-140.35 3,-166.72 24.3,-333.2 31.2,-500.04 17.5,-421.6 -195.1,-735.16 -490.9,-1001.09 -986.1,-886.41 -2170.7,-1344.93 -3459.8,-1535.78 -628.5,-93.21 -1270,-130.82 -1905.6,-131.65 -548.7,-1.4 -1102.6,55.28 -1645,143.29 -458.2,74.37 -903.1,231.01 -1353.9,350.86 -581.9,154.64 -1056.1,483.9 -1455.3,922.18 -288.9,317.07 -359.1,702.46 -176.9,1150 72.8,178.67 179.1,343.83 274.5,523.36 -266.1,-31.01 -528,-70.9 -791.2,-89.96 -541.9,-39.3 -1076.8,-2.11 -1577.2,232.38 -592.7,277.74 -887.8,794.38 -850.1,1429.57 41,691.06 235.5,1351.1 507.2,1984.34 181.5,422.97 398.6,830.51 598.6,1245.71 18.7,38.7 41.7,82.8 39.8,123.2 -11.2,239.1 -24.9,478.3 -49.6,716.3 -3.3,31.9 -72.2,78.7 -113,81.1 -648,40.4 -1297.4,61.5 -1944.2,114.3 -545.1,44.5 -1086,145.6 -1631.4,183.5 -768.5,53.2 -1539.1,86.8 -2309.3,98.7 -528.6,8.1 -1057.8,-33.8 -1586.62,-54.9 -334.3,-13.3 -669.18,-21 -1002.62,-47.3 -193.98,-15.1 -384.96,-64.5 -578.08,-93.6 -282.11,-42.2 -564.61,-110.6 -847.42,-112.1 -394.93,-2.1 -762.35,-138.8 -1147.15,-178.3 -201.53,-20.4 -411.21,28.3 -602.66,-74.2 -127.85,110.1 -226.8,-41.4 -345.94,-40 -125.62,1.5 -251.21,-43.7 -377.53,-47.1 -74.65,-2.1 -150.32,37 -225.51,57.4 2.81,9.4 5.47,18.6 8.28,27.7 z M 29104.5,5863.87 c -49.4,-22.46 -89.9,-40 -129.7,-59.22 -548.3,-264.57 -1094.3,-534.03 -1645.5,-792.81 -708.9,-333.17 -1458.9,-537.66 -2235.4,-606.14 -509,-44.92 -1025.1,-10.66 -1537.9,-13.63 -268.2,-1.52 -537.6,-24.84 -804,-5.59 -317.3,22.74 -638,63.29 -887,300.47 -68.2,64.85 -127.7,144.14 -206.6,191.84 -432.5,261.76 -872.1,511.83 -1304.2,774.3 -179.4,108.75 -346.3,237.89 -540,372.46 -142.8,-223.71 -277.2,-447.54 -424.9,-662.58 -161.5,-235.08 -174.4,-487.11 -47.7,-723.17 101.4,-188.35 243.1,-364.92 399.7,-511.83 491.4,-461.17 1110,-671.72 1746.8,-834.77 796.6,-204.06 1611,-263.86 2428.9,-263.71 778,0.12 1548.8,79.14 2302.5,290.51 914.4,256.25 1758.1,646.84 2488.2,1266.05 398.2,337.66 539.7,751.96 396.8,1277.82 z M 17271.6,10259.7 c -45.9,-91.5 -73.9,-149.7 -104.1,-207 -405.6,-768.21 -729.2,-1565.67 -834.1,-2435.36 -100.8,-833.36 183.2,-1338.9 1042.9,-1535.07 590.2,-134.89 1179,-74.69 1763.8,47.14 143.3,29.73 284.5,70.59 434.9,108.32 -1169.9,1119.11 -1977.3,2411.29 -2303.4,4021.97 z m 11033.1,2683.4 c -17.8,-12.5 -35.6,-25.2 -53.4,-37.9 -16.2,-70.9 -36.7,-141 -47.8,-212.7 -79.4,-516.4 -154.4,-1033.4 -236.9,-1549.1 -22.8,-142.4 -24.3,-260.2 87.6,-378.7 121.1,-128.7 218.7,-282.1 312.8,-433.4 224.2,-360.25 404.1,-742 320.4,-1179.74 -35.1,-184.26 -139.2,-355.62 -212.4,-532.73 -49.2,-118.44 17.3,-219.49 146.6,-218.36 84,1.4 168.4,14.18 251.4,7.15 135.2,-11.37 225.1,43.9 282.6,161.52 147,299.92 318.3,590.7 435.1,901.99 161,428.64 193.7,880.97 117.9,1335.17 -83.2,497 -317.5,924.5 -641.8,1301.8 -245.6,285.6 -507.3,557.1 -762.1,835 z m 738.2,4003.6 c -10.2,77.5 -7.1,99.4 -15.8,113.9 -227,374.1 -469.6,737.3 -825.4,1004 -1221.9,915.6 -2569.7,1460.4 -4124.6,1364.5 -387.3,-23.8 -760.9,-123.3 -1077.1,-367.8 -199.2,-154.1 -354.5,-344.5 -468.9,-610.6 1158.2,313.5 2285.2,314.3 3417.1,60.7 1146.1,-256.8 2150.1,-799.2 3094.7,-1564.7 z M 25686.6,5355.39 c -3.8,9.57 -7.7,19.26 -11.5,28.91 -320.8,66.52 -650.1,106.83 -960.1,206.87 -306.8,99.1 -606.2,107.5 -921.1,88.87 -1104.9,-65.98 -2162.6,96.25 -3096.7,710.39 -123.1,-55.86 -222.6,-101.02 -369.1,-167.54 277.3,-218.4 515.1,-436.64 782.7,-608.67 378.4,-243.36 764.8,-484.22 1174.7,-665.39 274.2,-120.98 599.4,-203.21 894.1,-184.42 531.8,33.83 1063,133.91 1584.7,250.39 317,70.59 615.4,223.99 922.3,340.59 z M 19400,16379 c -218.5,-272.5 -441.2,-541.8 -653.4,-819.2 -90.7,-118.3 -205,-244.3 -231,-381.7 -107.8,-568.8 144.8,-1038 704.2,-1224.5 106.4,-35.5 175.2,-25.8 235.8,78.2 203.8,350.4 419.2,694 621.3,1045.4 218.8,380.6 427.3,767 646.7,1162.3 -53.6,-11.3 -104.7,-26.6 -156.8,-32.2 -293,-31.5 -585.9,-74.1 -879.8,-84 -125.2,-3.9 -260.6,54 -287,255.7 z m -1739.7,-5496.7 c -215,-188 -134.4,-410 -87.2,-616.8 224.9,-982.69 577.3,-1912.34 1183.4,-2729.84 203.8,-274.96 419.9,-540.89 649.4,-835.46 12.9,58.08 20.2,70.85 16.7,78.71 -11.5,24.84 -28.1,47.3 -40.7,71.71 -169.2,326.45 -348.6,653.44 -352.5,1032.11 -4,393.09 31,787.62 -78.9,1172.58 -21.9,76.49 -43.4,177.93 -99.8,215.71 -330.4,220.89 -403.4,558.55 -441.1,914.48 -27.5,259.1 -46,519 -69,785.1 -73.6,-43 -150.8,-87.2 -227.3,-132.5 -221.7,-131.7 -263,-128 -453,44.2 z m 1502.9,2756.9 c -446.9,173.7 -853.7,400.7 -1023.6,931.8 -402.3,-867.4 -648,-1725.8 -685,-2653.8 322.5,-10.1 641.9,-88.7 834.7,262.7 33.7,61.2 105.4,100.2 150.3,156.8 113.3,142.6 242.7,278 326.6,436.9 145.6,274.8 261.3,565.2 397,865.6 z m 4195.2,-5915.06 c 78,-61.6 134.5,-107.23 191.9,-151.44 483.3,-374.03 1020.4,-640.4 1615.8,-778.05 98.2,-22.74 224.9,0 317.8,45.31 435.5,209.81 867.9,427.23 1292.9,657.5 191.1,103.59 362.8,243.67 554.6,375 -110,64.45 -193.5,109.61 -273.3,160.7 -149.1,94.89 -274.3,87.46 -406.4,-25.54 -101.6,-86.88 -205.3,-171.06 -308,-256.41 -447,-371.33 -959,-427.19 -1501.5,-294.02 -382.5,94.06 -647.5,331.91 -773.9,719.68 -241.4,-153.94 -470.9,-300.31 -709.9,-452.73 z M 30047,11193.9 c -4.1,86 -13.5,172.5 -11.6,258.3 7.1,295.3 5.4,591.3 31,884.9 22.5,259.7 -60.6,465.5 -229.1,654.8 -148.2,166.7 -275.2,352 -424.1,517.8 -139.4,155.3 -295.3,295.9 -451.7,450.5 -212.5,-223.9 -405.7,-427.5 -605,-637.5 738.1,-586.9 1347.9,-1251.1 1690.5,-2128.8 z m -3878.9,3038.4 c -24.4,-11.5 -48.8,-23.1 -73.1,-34.8 -70.7,-466.9 -144.6,-933.4 -207.6,-1401.4 -6.7,-49.7 37.9,-120.7 79.3,-160.3 207,-197.1 425.8,-220.4 656,-30.6 55.3,45.6 121.8,82.3 189.2,107.6 388.6,145.8 470.7,499.2 603.3,855.7 -425.4,226.4 -836.3,445 -1247.1,663.8 z m -4660.7,2029 c -212.6,-273 -422.1,-539.5 -628.6,-808.2 -359.1,-467.7 -759,-910 -940.3,-1489.5 -17.1,-54.6 -18.7,-114 -27.5,-171 69.2,-5.3 141.5,-25.4 206.7,-11.6 56.3,11.8 105.3,61 156.4,95.3 157.6,105.4 319.8,204.7 470,320 88.1,67.6 168.2,152.6 231.7,244.2 142.7,205.3 264,425.8 410.1,628.4 164.2,227.8 314.3,448.8 295.7,753 -10,164.3 -28.2,309.4 -174.2,439.4 z m 1331,-216.4 c 331.7,99.6 634.5,188.9 935.6,283.3 39.7,12.5 80,45.5 104.8,79.9 149.6,207.4 297.4,416.4 438.6,629.6 18.2,27.6 6.6,114.1 -11.1,120.7 -148.3,55.7 -299.1,129.9 -453.2,140.9 -467.3,33.1 -878,-171.4 -1287.9,-359.3 -31.9,-14.6 -59.9,-104.4 -45.2,-141.9 99.2,-253.2 210.5,-501.9 318.4,-753.2 z m 747.2,-937.2 c 9.4,-18.9 18.9,-37.7 28.2,-56.4 185.1,25.3 383.3,17.1 552.8,82.7 467.7,181.2 923.8,392.2 1383,594.8 47.2,20.9 102,55.9 123.1,99.1 60.9,124.2 106.2,256 171.5,419.3 -132.4,0 -245.6,13 -355.1,-2.4 -348.7,-48.5 -696.2,-149.7 -1043.9,-149 -282.9,1.4 -423.1,-96.3 -526.3,-337 -95.8,-223.5 -221,-434.5 -333.3,-651.1 z m 4167.4,2330.1 c 5.9,19.9 11.8,40 17.7,59.9 -515.9,322.4 -1400.3,715.6 -2462.3,860.5 -842.1,114.9 -2299.5,28.4 -2571.6,-166.8 422,-74.9 865.1,-153.1 1307.8,-232.4 123.9,-22.2 248.9,-74.8 370.6,-67.2 433.9,27 866.6,105.4 1299.7,105.4 535.3,0 1060.8,-93.1 1542.7,-358.7 155.1,-85.3 329.7,-134.7 495.4,-200.7 z m 3804.6,-8315.57 c 602.8,490.39 999.1,2083.97 674.7,3150.67 -28,-77.7 -50.7,-144.2 -75.9,-210 -128.3,-337.3 -242.9,-681 -390.9,-1009.4 -101.5,-225.1 -240.7,-417.5 -216.7,-695.5 34.6,-401.55 8.8,-808.39 8.8,-1235.77 z M 21037,9609.65 c -120.7,-78.01 -297.5,-38.99 -306.8,-215.55 -19.8,-377.11 -38.2,-755.19 -30,-1132.3 2.9,-137.27 60.4,-286.45 133.2,-406.02 149.5,-246.17 291.9,-264.57 523.3,-100.9 77.6,54.85 159.7,106.92 224,175 30.6,32.42 43.9,104.96 31.4,150.04 -48.7,175.43 -142.4,343.83 -161.5,521.1 -40.9,378.78 -290.4,655.97 -413.6,1008.63 z m 5789.9,-944.38 c 166.7,398.6 320.3,761.8 469,1126.84 15.5,38.05 20.1,97.81 0,129.96 -117.2,193.43 -242.7,381.63 -360.8,564.43 -250.5,-237 -486,-457.6 -717.3,-682.16 -30.2,-29.07 -64.6,-89.42 -53.6,-119.46 134,-370.35 315.6,-712.38 662.1,-1019.61 z m 923.9,7276.03 c 315.1,-198.3 459.6,-501.6 509.1,-844.6 31.5,-217.7 151.2,-330.5 335.1,-387.9 141.1,-44 292.9,-53.8 453.7,-81.1 81.5,206 161.7,389.6 226.2,578.5 45.1,131.8 21.5,236.5 -120.2,322.5 -430.9,261.5 -909.6,345.4 -1403.9,412.6 z M 25490.7,11670 c -136.6,-67.3 -245.5,-139.3 -365.2,-176.6 -301.6,-94 -416.3,-310.6 -451.8,-603.5 -26.2,-215.7 -77.6,-428.6 -118,-642.5 -20.6,-109.9 -41.7,-219.8 -62.6,-329.82 319.4,210.52 606.6,430.62 881.8,664.72 69.8,59.5 140.5,162.5 143,247.7 8.4,271.8 -15,544.6 -27.2,840 z m 5201,-1672.58 c 85.5,93.38 175.4,183.48 256.1,280.88 176.7,213.4 259.2,450.1 167,727.4 -29.6,89.2 -54.4,180.6 -73.4,272.7 -146.4,707.9 -284.9,1417.6 -439.4,2123.6 -47.4,217 -136.7,424.9 -206.7,636.8 -24.2,-376.7 -23.5,-740.9 7.1,-1102.5 19.8,-231.6 71.6,-462.5 130.3,-688.2 78.7,-302.5 203.5,-595 262,-900.7 86.3,-450.4 11.1,-897.2 -103,-1349.98 z M 23495,13172.7 c 78.3,-348.4 148.2,-659.9 223.4,-994.7 284.3,0 568.8,-4.4 852.7,4.7 42.1,1.4 106.8,60.2 118.6,104 48.7,181.5 81.3,367.4 127.6,589.7 -444.6,99.7 -876.4,196.4 -1322.3,296.3 z m 2808.4,-5081.14 c -547.2,145.12 -1089.6,290.24 -1632.9,431.84 -91.9,23.98 -319.6,-161.25 -287.3,-231.13 46.1,-99.54 91.6,-210.55 169.1,-282.39 293.5,-272.15 650.2,-339.49 1039.1,-287.85 294.2,39.02 528.8,176.29 712,369.53 z M 22781.8,10724 c 208.9,98.2 400.5,185.4 588.3,279.6 34.9,17.5 80,64.4 79,96.5 -7.9,257.6 -25.7,514.8 -38.9,747.5 -339.2,0 -640.5,3 -941.6,-4.9 -28.3,-1.4 -83,-75 -77.9,-107.5 58.6,-362.5 225,-683.2 391.1,-1011.2 z m 1675.1,432.8 c -231.3,-109 -426,-192.3 -610.6,-293.4 -57,-31.3 -111.2,-107 -124.7,-171 -48.9,-233.9 -62,-476.6 -123.7,-706.35 -54.5,-202.65 -27.3,-343.55 143.1,-478.12 81.4,-64.3 119.9,-56.88 198.6,-17.58 169.9,84.65 214.6,223.87 245.9,400 72.5,408.95 172.3,813.15 271.4,1266.45 z m 472.5,2186.3 c 112.6,411.9 217.7,796.5 322.6,1180.3 -398.9,123.4 -1087.6,117.9 -1330.4,-6.9 329.7,-383.8 658.8,-767 1007.8,-1173.4 z M 20391.1,9349.18 c -114.1,-36.48 -227.9,-85.47 -346.7,-106.95 -99,-17.82 -118.5,-62.31 -130.2,-154.38 -67.8,-535.82 76.5,-1026.76 277.5,-1515.43 125.7,-306.09 266.4,-330.35 606.9,-197.62 -6.4,14.89 -8.5,35.67 -19.7,43.79 -276.8,201.84 -368.4,497.82 -383.7,815.28 -17.5,365.31 -4.1,732.3 -4.1,1115.31 z m 2970.1,2844.62 c -47.8,198.9 -90.8,386.9 -138.6,573.7 -109.8,429.5 -110.8,429.2 -571.7,490.4 -90.6,-207.5 -187.2,-419.2 -275.3,-634.3 -39.9,-97.3 -75,-199.6 -90.2,-302.9 -12.3,-83 5.2,-175 127.5,-169.7 304.7,13.1 609.3,27.4 948.3,42.8 z m 1260.4,1011.6 c -25.1,36.7 -35.2,55.5 -48.9,71 -264.6,302.7 -537.5,598.6 -792.1,909.3 -299.9,366.1 -172.9,311 -570.2,114.3 -5,-2.5 -12,-5.5 -13.5,-9.7 -17,-49.6 -57.8,-106.7 -45.5,-147.6 62.7,-208.6 135.3,-414.6 214.5,-617.4 16.1,-41.4 71.3,-85.9 115.5,-95.2 369.8,-77.4 741,-147.2 1140.2,-224.7 z m 6985.8,-1779.7 c 26.5,46.9 64.4,90.7 77.9,141.1 109.8,412.8 197.9,832.5 327.2,1238.9 92.7,291.8 -73,422.6 -265.9,554.5 -127.9,87.6 -261.9,166.2 -395.2,245.8 -28.4,17.1 -64.6,20.9 -109.4,34.6 205,-734.5 363.2,-1455.2 365.4,-2214.9 z M 22619.1,6218.95 c -271.2,274.64 -475.1,582.14 -618,932.46 -11.4,27.93 -69.4,43.9 -108.6,52.61 -174.4,38.05 -255.7,-97.54 -361.6,-194.1 -162.1,-147.77 -332,-286.99 -509.5,-439.14 508.3,-267.93 1039.8,-353.67 1597.7,-351.83 z m 7380,2218.55 c 178.6,-21.17 354.8,-47.3 531.9,-58.52 32.4,-2.11 79.9,50.24 101.5,88.29 263.7,465.07 405.8,973.98 526.8,1490.03 7.7,32.54 1.4,68.5 1.4,98.4 -209.6,-223.59 -400,-450.82 -615.8,-650.5 -284.1,-262.47 -451.9,-581.61 -545.4,-967.7 z m 31.8,7509.5 c 19.3,-42.3 23.2,-56.8 31.3,-68.3 396.5,-553.8 784.4,-1112.5 1022.6,-1758.7 14.3,-38.7 41.7,-83.5 75.6,-102.4 233.7,-130.5 470.9,-255 728.5,-392.9 -408.9,947.7 -1039.9,1688.7 -1858,2322.3 z M 19949.4,9550.16 c 37.9,0 49.2,-2.27 59.4,0 26.8,6.87 52.6,19.8 79.9,23.16 267.6,33.83 425.6,161.68 439.3,452.98 9.1,198.5 110.4,407.1 71.5,590.1 -58.5,274.9 -203.8,531.3 -328.2,835.3 -312.4,-630.3 -189.2,-1280.4 -321.9,-1901.97 z m 5859.7,-44.93 c -283.4,-229.61 -573.9,-464.8 -864.2,-700.03 1.4,-21.76 2.5,-43.48 3.6,-65.12 497.6,-107.62 995.2,-215 1506.1,-325.31 -227.8,384.84 -432.4,730.35 -645.5,1090.46 z m 1883.2,-3127.96 c -6.2,12.07 -12.3,24.14 -18.4,36.21 -31.9,-8.6 -64.2,-15.16 -95.3,-25.71 -541.3,-181.32 -1098.9,-272.54 -1665.5,-336.4 -331.5,-37.35 -655,-145.82 -982,-222.46 107.4,-61.33 208.9,-83.75 311,-103.01 494.6,-93.87 982.2,-179.22 1453.7,115.94 319,199.41 663.4,358.32 996.5,535.43 z M 22607,10278.4 c 0,-183.4 11,-343.13 -2.2,-500.9 -28.8,-341.6 -72.9,-681.64 -102.9,-1023.09 -4.9,-55.58 29.5,-114.53 51.2,-191.71 144.3,92.07 255.3,155.78 357.6,231.13 49.7,36.79 101.2,89.26 120.4,145.39 50.3,146.52 89.1,297.97 120.9,449.8 13.7,65.98 26.4,157.35 -7.2,203.36 -165.3,228.21 -346.4,445.02 -537.8,686.02 z m 4941.9,-766.41 c -166.7,-321.83 -312.9,-609.65 -464.9,-894.41 -74.8,-140.35 -65.4,-187.5 95.8,-211.64 164.7,-24.85 334.3,-13.21 500.2,-31.6 169,-18.79 295.2,28.78 373.8,201.83 -160.4,297.81 -328,608.24 -504.9,935.82 z m 699,-3683.75 c -5.1,14.03 -10.3,27.89 -15.5,41.96 -79.3,-39.18 -156.6,-83.36 -238.3,-116.76 -400.8,-164.07 -816.4,-268.79 -1247.6,-318.6 -169.4,-19.64 -341.2,-53.9 -501.5,-110.47 -188.6,-66.64 -365.9,-165.03 -548.3,-249.1 -61.8,-28.47 -124.4,-55.58 -218.4,-97.69 714,-154.22 2003,292.5 2769.6,850.66 z m 20.9,3045.31 c 164.8,205.04 235.5,417.39 152.1,632.66 -103.7,267.81 -246.7,520.99 -381.2,775.99 -46.1,87.4 -117.9,161.4 -189,256.3 -52.2,-161.3 -102.5,-292.4 -135.1,-427.7 -15.9,-65.6 -22,-150.68 6.7,-207.25 172.6,-340.35 356.6,-675.07 546.5,-1030 z M 21440,11795.9 c -88.5,28.7 -167.1,0 -200.9,-137.5 -43.8,-177.7 -89,-356.5 -153.4,-527.3 -149.5,-396.8 -162.4,-773.8 149.7,-1158.09 61.2,80.99 145.2,146.39 164.1,227.09 33.9,145.3 37,299.5 38.9,450.1 4.9,373.2 1.6,746.6 1.6,1145.7 z m 6915.5,4649.4 c 4.9,16.3 9.9,32.4 14.7,48.7 -291,203.9 -579.1,411.9 -874.1,609.8 -152.5,102.3 -404.5,57.5 -532.9,-69.9 193.2,-229.5 385.9,-458.4 593.5,-704.8 246.4,35.7 522.6,75.9 798.8,116.2 z m -7953.4,741.1 c 7.1,-13.4 14.3,-26.9 21.3,-40.4 74.9,19.4 148.8,45.8 225,56.7 401.6,58.2 803.2,118.9 1206.4,165.1 134.7,15.3 186.9,69.6 182.1,198.4 -3.6,97.4 -1.3,195.2 -1.3,311.6 -657.9,0 -1120.9,-403.4 -1634.2,-691.4 z m 11999.8,-7101.5 c 595.1,716.3 693.7,1813 72.4,2551 183.9,-863.2 171,-1700.4 -72.4,-2551 z m -12488.4,6334 c 119.3,10.2 222.3,1.7 314.1,29.9 500.9,154.6 1000,315.9 1497.4,481.8 56.1,18.7 98.2,80 146.8,121.5 -9,13.5 -18.2,26.8 -27.1,40.2 -529.7,-70.2 -1066.2,-108.5 -1567.5,-319.8 -154.1,-65.1 -294.1,-153.9 -363.7,-353.6 z m 10610.6,-449.1 c 639.3,-557.5 1131.6,-1224.8 1511.1,-2017.5 -52.1,890.7 -579.5,1758.8 -1511.1,2017.5 z m -4990.2,-3115.2 c 94.9,512.5 186.2,1005.2 277.9,1500.1 -90.3,27.1 -168,50.5 -264.7,79.6 -113,-453 -224.3,-891.5 -328,-1331.8 -8.1,-34.6 26.3,-98.2 59.5,-120 77.8,-51.3 167,-85.3 255.3,-127.9 z m 1286.8,2707.2 c -161.1,-217.4 -310.1,-418.1 -459.1,-619.1 11.4,-15 22.9,-30.1 34.3,-45.3 342.7,-14.9 685.7,-30 1043.4,-45.6 -57.8,356.6 -326.5,514.1 -618.6,710 z m 707.9,-1617.6 c 7.3,151.3 12,287.8 20.9,424 11.2,169.7 -59.5,243.1 -234.7,230.8 -121.7,-8.5 -245.4,11.4 -368.4,12.8 -220.7,2.5 -441.5,1.4 -702.1,1.4 444.9,-231.4 850.7,-442.6 1284.3,-668.3 z m 2505,-655.6 c -21.7,276.8 -39.6,530.7 -64.4,784 -3.4,35.4 -35.5,89.6 -64.4,97.4 -198.6,53.8 -399.2,101.8 -601.1,140.4 -34.8,6.5 -93.1,-31.8 -115.4,-65.7 -14.7,-22.6 3,-86.2 27.1,-111.5 262,-275.2 528.1,-546.6 818.2,-844.6 z m -6267.3,-1419.3 c 0,-220.6 0,-438.4 0,-682.7 198,90.5 368.1,171.3 540.6,246.6 272.5,118.9 277.7,124.5 261.3,436.1 -264.1,0 -529.4,0 -801.9,0 z m -3231.5,213.2 c 162.8,0 296,-4.7 428.4,3.2 34.5,2.3 86.6,37.8 96.8,69.1 99.9,304.7 192.7,611.6 297.8,951.4 -410.9,-257.7 -608.2,-635.2 -823,-1023.7 z M 28839,6778.36 c -518,-324.49 -1024.1,-641.09 -1529.7,-957.85 574.5,154.1 1119.5,377.22 1622.5,711.83 -35.5,93.75 -66.3,175.55 -92.8,246.02 z m -8766,5989.14 c 126.5,218.7 245.4,423.8 367.4,634.4 -421.3,139.5 -997.9,-466.9 -952.5,-1075.9 106.6,52.9 162.9,128.1 144.6,253.6 -8.6,59.3 -11.4,126.5 8.5,181 24.9,68.3 63.7,160.8 119,180.8 57.4,20.7 144.8,-25.8 212.6,-56.8 34.6,-15.8 55.2,-62.2 100.4,-117.1 z m 5202.4,4929.5 c -3.2,-15.9 -6.5,-31.6 -9.6,-47.4 18.3,-8.6 36,-22.7 55.1,-24.9 404.7,-47.7 797,-138.1 1168.2,-313.6 192.7,-91.3 295.6,-60 463,116.6 -545.3,227.2 -1104.7,291.9 -1676.7,269.3 z m -580.2,-741.8 c -137.3,-190.1 -262.7,-363.8 -417,-577.3 384.9,50.5 721.3,94.9 1057.7,139.2 2.6,15.8 5.3,31.5 8,47 -212.4,127.9 -424.3,255.7 -648.7,391.1 z M 26453,11122.1 c -123.5,-134.1 -225.4,-269 -351.3,-375.9 -203.5,-173.2 -155.5,-363.4 -72.5,-593.7 149.2,171.9 283.6,327.9 419,482.7 196.5,224.5 197,224.2 4.8,486.9 z m 4555.3,-3291.32 c -567.7,-499.06 -1116.7,-981.68 -1665.8,-1464.33 11.6,-12.62 23.1,-25.12 34.7,-37.62 697.7,323.9 1193.8,867.19 1631.1,1501.95 z m -7180.6,989.73 c -185,-148.48 -330.5,-274.53 -485.7,-387.5 -193.7,-140.9 -220.2,-214.57 -123.1,-455.55 261.5,164.49 520.4,327.27 779.5,490.08 -217.3,36.76 -215.3,166.44 -170.7,352.97 z m -4230.2,2854.59 c -243.1,7.2 -284.4,-25 -315.8,-237.2 -33.1,-225.1 -77.3,-449.3 -91.9,-675.6 -16,-248 -3.7,-497.7 -3.7,-721.5 133.2,528.4 270.7,1075.3 411.4,1634.3 z M 30078.2,7598.12 c -118.7,-59.25 -239,-115.39 -355.5,-178.55 -128.9,-70 -250.5,-154.77 -382.4,-218.63 -250.9,-121.68 -278.9,-241.68 -87.1,-462.58 364.6,200 597.1,527.54 825,859.76 z m -4466.4,2597.58 c -327,-348 -640.8,-682.3 -954.6,-1016.48 9.4,-10.67 18.9,-21.33 28.5,-32.15 262.8,164.38 537,313.4 785.7,497.27 266.3,196.6 255.8,210.78 140.4,551.36 z m 108.8,4735.2 c 264.1,-32.3 280.4,-27.6 341,73.5 143.4,239 287.8,477.5 429.5,712.4 -149.1,-48.7 -321.3,-103.7 -492.2,-162.4 -23.9,-8.2 -52.3,-29.6 -61,-51.8 -72.8,-184 -141.3,-369.8 -217.3,-571.7 z M 22218,9101.91 c 24.4,4.07 48.8,7.97 73.3,12.04 0,345.54 0,691.21 0,1054.85 -96.2,-44.8 -196.5,-78.3 -279.6,-136.4 -39.9,-27.8 -77.4,-112.01 -64,-154.39 81.8,-261.17 178.5,-517.89 270.3,-776.1 z m 1656,-2765.78 c -475.2,317.58 -955.7,638.71 -1450.1,969.07 18.9,-39.15 25.2,-74.93 46.7,-93.33 296.1,-254.57 585.2,-518.86 896.1,-754.21 144.8,-109.73 312.4,-260.04 507.3,-121.53 z m 6873,7883.57 c -260.8,610.1 -581.2,1182.8 -1060.2,1653.9 256.6,-612.3 699.9,-1106.4 1060.2,-1653.9 z M 27297.9,11139 c -252.6,-201.1 -312.9,-283.8 151.7,-790.1 233.8,280.6 197,480.5 -151.7,790.1 z M 27969,7727.66 c -162,3.08 -309.3,45.89 -417.2,-1.41 -148,-64.84 -259.5,-207.58 -398.2,-299.49 -201.7,-133.75 -413.6,-252.07 -638.4,-387.35 296.4,28.05 1288.6,485 1453.8,688.25 z m -5872.6,3775.64 c -23.4,-2.2 -47,-4.5 -70.5,-6.9 -21.7,-375.7 -43.4,-751.4 -66.3,-1146.8 84.9,35.3 159.4,51 213.1,93.3 48.2,38 110.8,111.4 103,158.6 -49.9,302.3 -117.5,601.6 -179.3,901.8 z m 3953.7,5069 c 7.8,18.1 15.6,36.3 23.4,54.4 -39.3,42.7 -71.3,97.9 -119,126.2 -296.5,175.9 -594.8,348.9 -897.9,512.8 -37.1,20.1 -106.7,-20.5 -202.5,-42.3 355,-225 653.8,-420.5 960.1,-603.6 64.8,-38.8 156.4,-32.8 235.9,-47.5 z m -4378.2,-2267.6 c -393.1,-137.1 -498.1,-245 -624.8,-635 279.4,-46.9 705.5,376.1 624.8,635 z m -2716.2,2028.7 c 476.9,397.5 953.6,794.9 1457.9,1215.1 -654.3,-240.7 -1085.4,-692.7 -1457.9,-1215.1 z m 6160.9,-3644.7 c -59.7,-201.8 -106,-358.6 -158.2,-535 191.4,-29.8 358.9,-55.9 555,-86.3 -27.7,280.3 -248.8,393.1 -396.8,621.3 z m -416.9,2355.8 c 1.7,-11.8 3.2,-23.7 5,-35.5 189.8,-28.9 379.2,-60.2 569.6,-84.3 32.2,-4.1 90.7,13.5 99.3,35.9 47.6,123.9 83.7,252.5 123.7,379.3 -14.2,7.9 -28.2,15.7 -42.3,23.7 -251.8,-106.5 -503.6,-212.9 -755.3,-319.1 z m -2932.5,-1755.9 c -130.2,-383.2 -260.2,-766.4 -399.7,-1176.9 98.2,9.2 146.3,13.5 201.5,18.5 56.9,394.2 309.6,739.1 198.2,1158.4 z m 6890.9,-6014.81 c -551.7,-255.43 -1093.1,-506.09 -1634.6,-756.92 14.5,17.7 40.6,16.18 63.2,24.46 501,183.12 1001.7,367.26 1502.5,550.97 134.7,49.42 107.5,128.4 68.9,181.49 z m 742.3,7294.41 c 165,-34.4 324.1,-67.5 499.5,-104.3 -74.8,236.6 -81.1,475.2 -302.7,623 -66.5,-174.9 -129,-339.7 -196.8,-518.7 z M 23264.3,9980.74 c 14.4,5.04 28.7,10.08 43.2,15.16 29,209.7 58.1,419.3 91.3,658.7 -168.5,-75.8 -307.5,-138.5 -470.7,-212.1 119.9,-164.6 228.1,-313.3 336.2,-461.76 z m 4002,1648.66 c 148.2,238 289.1,464.2 429.9,690.3 -19.1,16 -38.2,32.1 -57.4,48.3 -139.5,-114.8 -286.2,-222.4 -417.1,-346.5 -191,-180.9 -185.6,-197.6 44.6,-392.1 z m -6785.6,108.7 c 89.9,-225.4 167.9,-421.3 261.1,-655.4 72.5,250.8 131.5,455.3 197.2,683.4 -160.9,-10 -296.3,-18.2 -458.3,-28 z m 10805.6,196.5 c -14.1,649.2 -99.3,1285.3 -374.7,1881.7 124.9,-627.2 250,-1254.4 374.7,-1881.7 z m -874.9,-327.8 c -21,-488.3 -42.2,-976.8 -63.3,-1465.2 142.9,483.9 217.7,971.1 63.3,1465.2 z M 23309,17552.7 c -402.9,218.4 -771.9,159 -887.9,-124.2 304.4,42.6 596.1,83.5 887.9,124.2 z m 5016.4,-3122.5 c 0,-212 0,-416.4 0,-627.6 418.7,334.7 420.7,375.1 38.7,625.6 -3.7,2.4 -10.3,1.5 -38.7,2 z m 739.7,2084.2 c -226.9,256 -505.3,426.6 -841.7,500 298.8,-136.3 448.8,-520.7 841.7,-500 z m -10262,-6325.1 c 9.8,-1.8 20,-3.7 29.8,-5.5 31.3,379.5 62.4,759 93.9,1142.1 -131.4,-44.6 -193.4,-137.2 -184.2,-275.9 19.1,-287 40.3,-573.9 60.5,-860.7 z m 7705.3,6472.8 c 131.1,-173.6 307.1,-245.7 559.5,-242.9 -102.1,116.2 -179.4,208 -260.7,296.4 -153.5,167.3 -198.8,158.7 -298.8,-53.5 z m -8690.1,-5533.9 c 17,-15.1 33.9,-30.3 50.7,-45.5 161.2,188.2 453.2,234.1 561.8,543 -111.6,-21.3 -211,-10.4 -253.3,-54.3 -131.4,-136.4 -241.1,-293.9 -359.2,-443.2 z m 8033.6,9 c 13.6,-4.2 27.1,-8.6 40.7,-12.7 59,66.1 117.2,132.5 177,197.9 118,129.4 113.4,159.9 -43.1,232.2 -53.1,24.5 -109,42.5 -174.6,67.5 0,-177.6 0,-331.2 0,-484.9 z m 1962.6,697.2 c -14.6,3.1 -29.5,6.3 -44.1,9.5 -63.6,-101.1 -118.6,-209.5 -193.2,-301.8 -77.8,-96.2 -96.5,-168.6 21.7,-241.4 34.8,-21.4 61.5,-56.2 108.2,-100.5 38.3,226.1 72.9,430 107.4,634.2 z m -8620.1,803.5 c -251.8,-188.4 -257.7,-436.6 -332.2,-705.1 84.8,37.4 161.7,48.1 171.2,79.3 58.7,192.4 102.3,389.6 161,625.8 z m 1506.9,-5828.68 c 21,-13.75 42.2,-27.23 63.3,-40.82 180.1,130.66 360.1,261.17 540.3,391.99 -12.8,20.47 -25.5,40.98 -38.3,61.45 -169.4,-87.58 -341.9,-169.81 -505.5,-266.92 -36.3,-21.48 -40.9,-95.86 -59.8,-145.7 z m 4994.3,10478.38 c -2,-11.9 -4,-24 -6.1,-35.9 182.5,-123.2 364.8,-246.5 552.6,-373.3 37.9,47.3 71.8,89.7 131.8,164.6 -238.6,86 -458.4,165.5 -678.3,244.6 z m -2860.1,-2244.1 c 163.8,152 62,464 -210.2,593.4 75.5,-213.2 141.9,-400.6 210.2,-593.4 z m 343.6,463.6 c 104.5,131.3 194.9,244.8 285.1,358.4 -8.3,12.5 -16.4,25 -24.7,37.6 -133.3,-47.3 -266.5,-94.6 -418.1,-148.4 56.9,-89.3 100.2,-157.4 157.7,-247.6 z M 27953,13040 c -153.7,-92.4 -298.8,-145.9 -338.5,-321.7 109.3,0 206.4,0 315.8,0 7.3,103.4 13.9,195.8 22.7,321.7 z m 28.6,1470.5 c -15.7,0.1 -31.7,0 -47.5,0 0,-288.6 0,-576.8 0,-865.4 15.8,0 31.8,0 47.5,-1.4 0,288.7 0,577.1 0,865.5 z M 19708.2,7228.28 c -13.3,-10.35 -26.5,-20.9 -39.8,-31.41 98,-170.11 196,-340.19 298.9,-518.86 46.7,43.24 82.1,75.94 125.9,116.48 -132.5,149.34 -258.7,291.64 -385,433.79 z m -2249.6,3938.52 c 117.9,155.3 206.9,272.6 318.7,420 -135.7,-6 -227.7,-10.1 -318.7,-14.1 0,-125.8 0,-242.5 0,-405.9 z m 5797.2,-4131.76 c 3.5,5.04 7.1,10.12 10.6,15.16 -101.9,152.69 -203.7,305.39 -308.7,462.57 -49.4,-26.79 -101.3,-55.43 -172.5,-94.18 167.1,-136.13 318.9,-259.92 470.6,-383.55 z m 3272.9,4885.26 c -133.1,40 -235.5,70.9 -337.8,101.7 -3.8,-29.4 -22.1,-72.8 -9.3,-85.9 66.5,-68 140.7,-128.5 219.9,-198.4 43.9,63.2 68.5,98.4 127.2,182.6 z M 19459.2,8303.91 c 26.4,0 52.8,0 79.2,0 0,245.15 0,490.5 0,735.82 -7.6,0 -15,0 -22.6,1.4 -19,-245.31 -37.7,-490.78 -56.6,-736.25 z m 11718,807.11 c -73.1,-181.06 -132.7,-329.81 -205.9,-511.84 238.3,117.03 284.2,271.02 205.9,511.84 z m -8587,-1177.5 c -38.2,-72.97 -117.3,-163.64 -97.9,-197.04 90.2,-154.92 178.4,-7.3 304.5,17.97 -71.8,62.19 -121,104.69 -206.6,179.07 z m 6368.7,8046.78 c -180.4,212.6 -277.2,236.3 -499.2,141.1 161.1,-45.7 312.6,-88.5 499.2,-141.1 z m -6042.6,-2194.8 c -58.2,-109.6 -98.2,-184.9 -148.2,-279.1 93.9,0 158.2,0 245.5,0 -31.4,90.2 -57.7,165.7 -97.3,279.1 z m 5411.2,-5831.05 c -5.5,138.52 -190.5,173.32 -385.4,74.81 8.4,-6.49 16,-17.15 25.2,-18.67 119.7,-19.38 239.9,-37.47 360.2,-56.14 z m -5756,6612.45 c -264,12.9 -289.2,-7 -270.2,-182.2 96.2,64.9 183.2,123.5 270.2,182.2 z m 6435.7,-7184.2 c 69.2,97.1 124.8,174.84 188.7,264.25 -227.5,-17.26 -280.8,-89.14 -188.7,-264.25 z"
       style="fill:#ef4444;fill-opacity:1;fill-rule:evenodd;stroke:none"
       transform="matrix(0.13333333,0,0,-0.13333333,0,3000)" />
  </g>
</svg>
