<?xml version="1.0" encoding="UTF-8" standalone="no"?>
<!-- Created with Inkscape (http://www.inkscape.org/) -->

<svg
   version="1.1"
   id="svg1"
   width="5000"
   height="5000"
   viewBox="0 0 5000 5000"
   sodipodi:docname="vecteezy_black-swirl-spiral-on-white-screen-vector-design_8170347-0.eps"
   xmlns:inkscape="http://www.inkscape.org/namespaces/inkscape"
   xmlns:sodipodi="http://sodipodi.sourceforge.net/DTD/sodipodi-0.dtd"
   xmlns="http://www.w3.org/2000/svg"
   xmlns:svg="http://www.w3.org/2000/svg">
  <defs
     id="defs1" />
  <sodipodi:namedview
     id="namedview1"
     pagecolor="#ffffff"
     bordercolor="#000000"
     borderopacity="0.25"
     inkscape:showpageshadow="2"
     inkscape:pageopacity="0.0"
     inkscape:pagecheckerboard="0"
     inkscape:deskcolor="#d1d1d1">
    <inkscape:page
       x="0"
       y="0"
       inkscape:label="1"
       id="page1"
       width="5000"
       height="5000"
       margin="0"
       bleed="0" />
  </sodipodi:namedview>
  <g
     id="g1"
     inkscape:groupmode="layer"
     inkscape:label="1">
    <path
       id="path1"
       d="M 0,0 H 37500 V 37500 H 0 Z"
       style="fill:none"
       transform="matrix(0.13333333,0,0,-0.13333333,0,5000)" />
    <path
       id="path2"
       d="m 24786.4,18475.4 c 0.2,-6.1 0.2,-10.3 0.2,-11.6 l -0.4,11.6 z m -2251.5,7.5 v 0 l 19.1,-19.1 z m -3878.5,17103.4 c -9495.15,0 -17204.29,-7646.9 -17305.03,-17118.3 -0.67,-62.5 -0.98,-125.1 -0.98,-187.8 0,-56.3 0.27,-112.4 0.78,-168.7 2.07,-214.1 176.21,-386.7 390.39,-386.7 h 348.6 0.04 c 104.18,0 204.06,41.6 277.38,115.7 73.32,74 114.02,174.3 113.01,278.5 -0.51,53.7 -0.79,107.4 -0.79,161.2 0,58 0.32,115.9 0.9,173.7 h -0.04 c 0.04,1.9 0.08,3.8 0.12,5.6 96.1,8851.5 7301.41,15997.4 16175.62,15997.4 8874.3,0 16079.6,-7145.9 16175.7,-15997.3 0.6,-60.1 1,-119.1 1,-179.4 v 0 c -0.1,-52.7 -0.5,-107.8 -1.1,-160.4 C 34735.8,9884.18 28029.7,3237.58 19771.3,3237.58 11523.5,3237.58 4824.06,9866.99 4710.86,18087.8 h -0.04 c 0.74,10.6 1.06,21.3 0.94,32 -0.71,56.6 -1.02,113.1 -1.02,169.7 0,54.4 0.31,108.5 0.94,162.7 h -0.08 c 0.08,2.2 0.12,4.6 0.16,6.9 90.82,7618.7 6295.14,13766.9 13935.44,13766.9 7640.2,0 13844.5,-6148.2 13935.3,-13766.8 0.7,-56.9 1.1,-112.6 1.1,-169.7 0,-57 -0.4,-112.7 -1.1,-169.6 -0.5,-40.3 5.3,-80.1 16.8,-118 h -0.4 C 32446.1,11054 26765.9,5468.52 19781.2,5468.52 12759.6,5468.52 7056.25,11113.2 6961.45,18112.2 h -0.08 c 0.04,2.7 0.04,5.4 0,8.1 -0.75,56.3 -1.1,112.7 -1.1,169.2 0,56.4 0.35,112.9 1.1,169.2 0.51,39.8 -5.08,79 -16.21,116.4 h -0.08 c 151.6,6332.8 5332.82,11419.9 11702.12,11419.9 6408.4,0 11614,-5149.8 11704.2,-11536.7 0.1,-5.2 0.3,-10.4 0.6,-15.6 h -0.4 c 0.7,-50.9 1,-102.1 1,-153.2 0,-56.2 -0.4,-112.7 -1.2,-168.8 -0.5,-40 5,-79.5 16.3,-117.2 h -0.3 C 30215.9,12287 25534.2,7699.45 19781.2,7699.45 13991.7,7699.45 9287.23,12345.4 9192.66,18112.3 h -0.12 c 0.04,3 0,6 -0.04,9 -0.86,55.9 -1.29,112.1 -1.29,168.2 0,56.3 0.43,112.1 1.29,168.2 0.62,39.5 -4.73,78.4 -15.62,115.6 h -0.08 c 150,5101.3 4332.6,9190.8 9470.4,9190.8 5176.6,0 9383.7,-4151.8 9473,-9307 0.1,-5 0.3,-10 0.5,-15 h -0.2 c 0.8,-50.8 1.2,-101.5 1.2,-152.6 0,-56.1 -0.5,-111.6 -1.5,-167.5 -0.7,-39.7 4.7,-78.8 15.6,-116.2 l -0.3,-0.1 C 27986,13520.6 24302.8,9930.43 19781.2,9930.43 v -0.04 C 15223.6,9930.43 11517.9,13578 11424,18113 h -0.2 c 0.1,3.3 0,6.6 0,9.9 -1.1,55.4 -1.7,110.9 -1.7,166.6 0,55.7 0.6,111.2 1.7,166.6 0.7,39 -4.4,77.4 -14.8,114.2 h -0.1 c 147.5,3870.3 3331.7,6962.8 7238.1,6962.8 h 0.2 c 3945.2,0 7153.8,-3154.1 7241.7,-7078 0.1,-4.8 0.3,-9.5 0.6,-14.3 h -0.3 c 1,-50 1.5,-101.1 1.5,-151.3 0,-54.8 -0.6,-110.9 -1.8,-165.5 -0.9,-39 4.1,-77.5 14.4,-114.3 h -0.2 c -146.3,-3254.5 -2831.2,-5848.3 -6121.9,-5848.3 -3326.1,0 -6033.3,2649.9 -6125.7,5953.4 h -0.1 c 0,3.6 -0.1,7.1 -0.2,10.7 -1.4,54.5 -2.1,109.1 -2.1,164 0,54.9 0.7,109.5 2.1,164 1,37.9 -3.5,75.4 -13.1,111.3 h -0.2 c 142.8,2640.3 2329.2,4737.3 5005.1,4737.4 h 0.2 c 2714.2,-0.1 4924.7,-2157.5 5010,-4850.8 0.2,-4.5 0.4,-9 0.7,-13.5 h -0.3 c 1.5,-49.2 2.2,-98.8 2.2,-148.4 0,-54.1 -0.9,-108.2 -2.6,-161.9 -1.1,-37.2 3,-74.1 12.1,-109.5 h -0.2 c -139.3,-2025.7 -1826.8,-3625.8 -3887.9,-3625.8 -2095.5,0 -3804.8,1654 -3893.5,3727.4 h -0.2 c -0.1,3.7 -0.2,7.4 -0.3,11.2 -2.1,52.5 -3.2,105.5 -3.2,158.6 0,53.1 1.1,106.1 3.2,158.7 1.4,34.7 -1.9,69.2 -9.5,102.5 h -0.2 c 131.6,1413.7 1321.5,2520.6 2769.7,2520.6 1484.8,0 2698.2,-1163.7 2777.5,-2628.6 0.2,-4.2 0.5,-8.4 0.9,-12.5 h -0.2 c 2.3,-46.6 3.4,-93.4 3.4,-140.7 0,-51.4 -1.3,-102.4 -4.1,-153.2 -1.6,-30.1 0.3,-60.1 5.5,-89.4 h -0.3 c -117.2,-805.1 -811,-1423.7 -1648.7,-1423.7 -868.7,0 -1582.4,665 -1659.4,1513.4 h -0.2 c -0.2,3.8 -0.4,7.5 -0.7,11.3 -4,46.6 -5.9,93.8 -5.9,141.6 0,47.7 1.9,95.1 5.9,141.6 0.7,8.4 1.1,16.8 1.3,25.2 h -0.3 c 70.6,222.7 279.5,384 525.3,384 268.9,0 493.5,-193.1 541.3,-448.4 0.6,-3 1.2,-6.2 1.8,-9.2 h -0.2 c 5.1,-30 7.8,-61.1 7.8,-93.2 0,-35.3 -3.3,-69.5 -9.4,-102.4 -21.4,-114.1 9.2,-231.9 83.3,-321.2 74.2,-89.4 184.3,-141.1 300.4,-141.1 h 353 v 0 c 195.5,0 360.8,144.5 387,338.8 v 0.1 c 10,74 15.1,149.5 15.1,225.8 0,76.7 -5.1,152.3 -15.2,226.6 -110.9,820.9 -813.7,1453.6 -1664.9,1453.6 -851.3,0 -1554.1,-632.7 -1665,-1453.6 -0.7,-4.5 -1.2,-9 -1.6,-13.6 h -0.2 c -8.9,-69.9 -13.5,-140.9 -13.5,-213 0,-76.7 5.2,-152.2 15.3,-226.5 3.9,-28.8 10.8,-56.5 20.5,-82.8 h -0.2 c 154.1,-1398.7 1339.2,-2486.4 2778.7,-2486.4 1471,0 2676.4,1136 2787.3,2578.8 h -0.2 c 0.5,4.9 1,9.8 1.3,14.7 4.8,66.9 7.2,134.1 7.2,202.2 0,67.8 -2.4,135.4 -7.2,202.1 -2.7,37.8 -10.7,74 -23.2,107.8 h -0.3 c -158.1,2015.4 -1843.2,3601.3 -3898.9,3601.3 -2095.3,0 -3805.5,-1647.4 -3906.5,-3717.8 -0.1,-4 -0.3,-8 -0.4,-11.9 h -0.1 c -2.8,-60.1 -4.2,-120.7 -4.2,-181.5 0,-64.7 1.6,-129.3 4.7,-193.3 2,-40.5 10.1,-79.3 23.4,-115.6 h -0.2 c 159.8,-2632.4 2344.9,-4717.7 5017.3,-4717.7 2712.9,0 4923.7,2149.1 5023.1,4837.8 2.3,62.6 3.5,125.8 3.5,188.8 0,63 -1.2,126.2 -3.5,188.7 -1.5,40.9 -9.3,80 -22.3,116.6 h -0.3 c -159.2,3250.5 -2844.8,5836.8 -6134.5,5836.8 -3330,0 -6040.9,-2649.9 -6139.3,-5956.2 -0.2,-3.6 -0.2,-7.2 -0.2,-10.7 h -0.2 c -1.6,-58.3 -2.4,-116.6 -2.4,-175.2 0,-62.2 0.9,-124 2.8,-185.9 1.2,-41.7 8.9,-81.7 22.2,-119.1 h -0.1 c 159.9,-3866.9 3345.2,-6952.5 7251.2,-6952.5 3946.7,0 7157.5,3150.2 7255.2,7073.4 1.5,61.2 2.3,122.6 2.3,184.1 0,61.5 -0.7,122.8 -2.3,184 -1,41.4 -8.4,81.1 -21.3,118.3 h -0.3 c -159.2,4484.4 -3844.6,8070.7 -8367.6,8070.7 -4563.3,0 -8273.8,-3650.3 -8371.1,-8190.3 -1.3,-60.7 -2,-121.7 -2,-182.7 0,-60.9 0.7,-122 2,-182.6 0.9,-42 8.4,-82.3 21.5,-120 h -0.1 c 159.8,-5100.4 4344.6,-9185.92 9483.7,-9185.92 5179.7,0 9389.9,4150.32 9486.8,9306.92 1.1,60.5 1.7,120.8 1.7,181.6 0,60.8 -0.6,121.1 -1.7,181.6 -0.8,41.5 -8.1,81.4 -20.8,118.7 h -0.3 c -159.1,5717.7 -4843.8,10303.7 -10599.7,10303.7 -5796.1,0 -10505.91,-4650.1 -10602.47,-10423.1 -0.08,-3 -0.08,-5.9 -0.08,-8.8 h -0.08 c -0.9,-57.3 -1.37,-114.6 -1.37,-172.1 0,-60.4 0.51,-120.6 1.53,-180.8 0.7,-42 8,-82.4 20.93,-120.1 h -0.07 C 8225.31,11655.1 13409.4,6570.04 19781.2,6570.04 26188,6570.04 31394,11711.1 31499,18093 h -0.3 c 0.2,5.4 0.4,10.9 0.6,16.3 0.9,59.8 1.3,120.2 1.3,180.2 0,60 -0.4,120.3 -1.3,180.2 -0.7,41.5 -7.8,81.4 -20.4,118.8 h -0.3 c -158.9,6950.5 -5842.9,12535.9 -12831.4,12535.9 -7028.6,0 -12737.55,-5649.4 -12833.72,-12655.2 -0.82,-59.8 -1.21,-119.7 -1.21,-179.7 0,-59.9 0.39,-119.8 1.21,-179.6 0.58,-42 7.77,-82.4 20.58,-120.2 h -0.04 C 5993.59,10423.4 12176.8,4339.1 19781.2,4339.1 c 7644.7,0 13853.2,6149.1 13949.2,13771.2 0.8,59.1 1.1,119.9 1.1,179.2 0,59.7 -0.3,119.6 -1.1,179.2 -0.5,41.5 -7.5,81.4 -20,118.8 h -0.3 c -158.8,8183.2 -6841.9,14767.9 -15062.9,14767.9 -8249.5,0 -14950.44,-6630.4 -15064.39,-14852.9 h -0.08 c -1.13,-11.4 -1.75,-23 -1.87,-34.7 -0.55,-56 -0.86,-112.3 -0.86,-168.4 0,-57.7 0.31,-115.4 0.9,-172.9 h -0.04 c -0.35,-11.5 -0.16,-23 0.51,-34.3 h -0.08 C 3692.34,9245.43 10898.2,2108.16 19771.3,2108.16 c 8879.1,0 16088.9,7147.27 16190.1,16002.54 0.5,50.2 0.9,100.7 1,151.1 h -0.3 c 0.2,6.1 0.4,12.3 0.4,18.4 0,63.5 -0.3,124.5 -1,187.7 0,0 0,0 0,0.1 -100.7,9471.4 -7809.9,17118.3 -17305.1,17118.3 z"
       style="fill:#a78bfa;fill-opacity:1;fill-rule:nonzero;stroke:none"
       transform="matrix(0.13333333,0,0,-0.13333333,0,5000)" />
  </g>
</svg>
