<?xml version="1.0" encoding="utf-8"?>
<!-- Generator: Adobe Illustrator 24.1.0, SVG Export Plug-In . SVG Version: 6.00 Build 0)  -->
<svg version="1.1" id="Calque_1" xmlns="http://www.w3.org/2000/svg" xmlns:xlink="http://www.w3.org/1999/xlink" x="0px" y="0px"
	 viewBox="0 50 1547 260" style="enable-background:new 0 50 1547 260;" xml:space="preserve">
<style type="text/css">
	.st0{display:none;}
	.st1{display:inline;}
	.st2{clip-path:url(#SVGID_2_);}
	.st3{display:inline;fill:url(#SVGID_3_);stroke:url(#SVGID_4_);stroke-width:3.1542;}
	.st4{fill:url(#SVGID_5_);}
	.st5{fill:url(#SVGID_6_);}
	.st6{fill:url(#SVGID_7_);}
	.st7{fill:url(#SVGID_8_);}
</style>
<g class="st0">
	<defs>
		<rect id="SVGID_1_" y="77.56" width="210.28" height="197.87"/>
	</defs>
	<clipPath id="SVGID_2_" class="st1">
		<use xlink:href="#SVGID_1_"  style="display:none;overflow:visible;"/>
	</clipPath>
	<g class="st2">
		
			<linearGradient id="SVGID_3_" gradientUnits="userSpaceOnUse" x1="154.0537" y1="250.9275" x2="45.0537" y2="81.4275" gradientTransform="matrix(1 0 0 -1 0 353.8898)">
			<stop  offset="0" style="stop-color:#DE02F9"/>
			<stop  offset="1" style="stop-color:#35018A"/>
		</linearGradient>
		
			<linearGradient id="SVGID_4_" gradientUnits="userSpaceOnUse" x1="122.8845" y1="272.0544" x2="75.2566" y2="74.1824" gradientTransform="matrix(1 0 0 -1 0 353.8898)">
			<stop  offset="0" style="stop-color:#EE64F8"/>
			<stop  offset="1" style="stop-color:#6F2B92"/>
		</linearGradient>
		<path class="st3" d="M90.69,83.42c8.84-5.71,20.2-5.71,29.03,0.01l76.78,49.69c10.08,6.52,14.57,18.97,10.98,30.43l-28.68,91.53
			c-3.49,11.15-13.82,18.74-25.51,18.74H57.25c-11.66,0-21.97-7.56-25.49-18.67L2.82,163.61c-3.63-11.48,0.87-23.97,10.98-30.51
			L90.69,83.42z M135.77,154.28c-16.83-16.83-44.11-16.83-60.94,0C58,171.11,58,198.4,74.83,215.23s44.11,16.83,60.94,0
			C152.6,198.4,152.6,171.11,135.77,154.28z"/>
	</g>
</g>
<path d="M336,284.82c-13.18,0-25.04-1.6-35.58-4.8c-10.54-3.39-20.61-9.23-30.22-17.51c-2.45-2.07-4.33-4.42-5.65-7.06
	c-1.32-2.63-1.98-5.27-1.98-7.91c0-4.33,1.51-8.1,4.52-11.3c3.2-3.39,7.15-5.08,11.86-5.08c3.58,0,6.78,1.13,9.6,3.39
	c7.15,5.84,14.21,10.26,21.18,13.27c7.15,3.01,15.91,4.52,26.26,4.52c6.97,0,13.37-1.04,19.2-3.11c5.84-2.26,10.54-5.18,14.12-8.76
	c3.58-3.76,5.37-8,5.37-12.71c0-5.65-1.69-10.45-5.08-14.4c-3.39-3.95-8.57-7.25-15.53-9.88c-6.97-2.82-15.81-4.99-26.55-6.49
	c-10.17-1.51-19.11-3.77-26.83-6.78c-7.72-3.2-14.21-7.15-19.48-11.86c-5.08-4.89-8.94-10.54-11.58-16.94
	c-2.64-6.59-3.95-13.93-3.95-22.03c0-12.24,3.11-22.69,9.32-31.35c6.4-8.66,14.97-15.25,25.7-19.77
	c10.73-4.52,22.59-6.78,35.58-6.78c12.24,0,23.53,1.88,33.89,5.65c10.54,3.58,19.11,8.19,25.7,13.84c5.46,4.33,8.19,9.32,8.19,14.97
	c0,4.14-1.6,7.91-4.8,11.3c-3.2,3.39-6.97,5.08-11.3,5.08c-2.82,0-5.37-0.85-7.62-2.54c-3.01-2.64-7.06-5.08-12.14-7.34
	c-5.08-2.45-10.45-4.42-16.1-5.93c-5.65-1.69-10.92-2.54-15.81-2.54c-8.1,0-14.97,1.04-20.62,3.11c-5.46,2.07-9.6,4.89-12.43,8.47
	s-4.24,7.72-4.24,12.43c0,5.65,1.6,10.35,4.8,14.12c3.39,3.58,8.19,6.5,14.4,8.75c6.21,2.07,13.65,3.95,22.31,5.65
	c11.3,2.07,21.18,4.52,29.65,7.34c8.66,2.82,15.81,6.49,21.46,11.01c5.65,4.33,9.88,9.88,12.71,16.66
	c2.82,6.59,4.24,14.68,4.24,24.29c0,12.24-3.39,22.78-10.17,31.63c-6.78,8.85-15.72,15.63-26.83,20.33
	C360.66,282.47,348.8,284.82,336,284.82z M428.54,133.74h66.93c4.52,0,8.28,1.51,11.3,4.52c3.01,3.01,4.52,6.78,4.52,11.3
	c0,4.33-1.51,8-4.52,11.01c-3.01,2.82-6.78,4.24-11.3,4.24h-66.93c-4.52,0-8.28-1.51-11.3-4.52c-3.01-3.01-4.52-6.78-4.52-11.3
	c0-4.33,1.51-7.91,4.52-10.73C420.25,135.25,424.02,133.74,428.54,133.74z M458.75,98.44c4.89,0,8.85,1.69,11.86,5.08
	c3.2,3.2,4.8,7.25,4.8,12.14v125.67c0,2.64,0.47,4.8,1.41,6.5c1.13,1.69,2.54,2.92,4.24,3.67c1.88,0.75,3.86,1.13,5.93,1.13
	c2.26,0,4.33-0.38,6.21-1.13c1.88-0.94,4.05-1.41,6.5-1.41c2.64,0,4.99,1.22,7.06,3.67c2.26,2.45,3.39,5.84,3.39,10.17
	c0,5.27-2.92,9.6-8.75,12.99c-5.65,3.39-11.77,5.08-18.36,5.08c-3.95,0-8.38-0.28-13.27-0.85c-4.71-0.75-9.23-2.35-13.56-4.8
	c-4.14-2.64-7.62-6.59-10.45-11.86c-2.82-5.27-4.24-12.52-4.24-21.74V115.67c0-4.89,1.6-8.94,4.8-12.14
	C449.71,100.13,453.86,98.44,458.75,98.44z M654.79,128.09c4.89,0,8.94,1.6,12.14,4.8c3.2,3.2,4.8,7.34,4.8,12.42v119.46
	c0,4.9-1.6,9.04-4.8,12.43c-3.2,3.2-7.25,4.8-12.14,4.8c-4.9,0-8.94-1.6-12.14-4.8c-3.2-3.39-4.8-7.53-4.8-12.43v-13.84l6.21,2.54
	c0,2.45-1.32,5.46-3.95,9.04c-2.64,3.39-6.21,6.78-10.73,10.17c-4.52,3.39-9.88,6.31-16.1,8.75c-6.02,2.26-12.61,3.39-19.77,3.39
	c-12.99,0-24.76-3.3-35.3-9.88c-10.54-6.78-18.92-16-25.13-27.68c-6.02-11.86-9.04-25.42-9.04-40.67c0-15.44,3.01-28.99,9.04-40.66
	c6.21-11.86,14.5-21.09,24.85-27.68c10.36-6.78,21.84-10.17,34.45-10.17c8.1,0,15.53,1.22,22.31,3.67
	c6.78,2.45,12.61,5.55,17.51,9.32c5.08,3.77,8.94,7.62,11.58,11.58c2.82,3.76,4.24,6.97,4.24,9.6l-10.17,3.67v-20.62
	c0-4.89,1.6-8.94,4.8-12.14C645.85,129.79,649.89,128.09,654.79,128.09z M597.74,253.76c8.28,0,15.53-2.07,21.74-6.21
	c6.21-4.14,11.01-9.79,14.4-16.94c3.58-7.15,5.36-15.15,5.36-24c0-9.04-1.79-17.13-5.36-24.29c-3.39-7.15-8.19-12.8-14.4-16.94
	c-6.21-4.14-13.46-6.21-21.74-6.21c-8.09,0-15.25,2.07-21.46,6.21s-11.11,9.79-14.68,16.94c-3.39,7.15-5.08,15.25-5.08,24.29
	c0,8.85,1.69,16.85,5.08,24c3.58,7.15,8.47,12.8,14.68,16.94S589.65,253.76,597.74,253.76z M823.58,128.09
	c4.89,0,8.94,1.6,12.14,4.8c3.2,3.2,4.8,7.34,4.8,12.42v119.46c0,4.9-1.6,9.04-4.8,12.43c-3.2,3.2-7.25,4.8-12.14,4.8
	c-4.9,0-8.94-1.6-12.14-4.8c-3.2-3.39-4.8-7.53-4.8-12.43v-13.84l6.21,2.54c0,2.45-1.32,5.46-3.95,9.04
	c-2.64,3.39-6.21,6.78-10.73,10.17c-4.52,3.39-9.88,6.31-16.1,8.75c-6.03,2.26-12.61,3.39-19.77,3.39c-12.99,0-24.76-3.3-35.3-9.88
	c-10.54-6.78-18.92-16-25.13-27.68c-6.02-11.86-9.04-25.42-9.04-40.67c0-15.44,3.01-28.99,9.04-40.66
	c6.21-11.86,14.5-21.09,24.85-27.68c10.35-6.78,21.84-10.17,34.45-10.17c8.1,0,15.53,1.22,22.31,3.67
	c6.78,2.45,12.61,5.55,17.51,9.32c5.08,3.77,8.94,7.62,11.58,11.58c2.82,3.76,4.24,6.97,4.24,9.6l-10.17,3.67v-20.62
	c0-4.89,1.6-8.94,4.8-12.14C814.64,129.79,818.68,128.09,823.58,128.09z M766.53,253.76c8.28,0,15.53-2.07,21.74-6.21
	c6.21-4.14,11.01-9.79,14.4-16.94c3.58-7.15,5.36-15.15,5.36-24c0-9.04-1.79-17.13-5.36-24.29c-3.39-7.15-8.19-12.8-14.4-16.94
	c-6.21-4.14-13.46-6.21-21.74-6.21c-8.1,0-15.25,2.07-21.46,6.21s-11.11,9.79-14.68,16.94c-3.39,7.15-5.08,15.25-5.08,24.29
	c0,8.85,1.7,16.85,5.08,24c3.58,7.15,8.47,12.8,14.68,16.94S758.44,253.76,766.53,253.76z M945.27,128.09
	c15.06,0,26.17,3.67,33.32,11.01c7.15,7.15,11.86,16.47,14.12,27.96l-4.8-2.54l2.26-4.52c2.26-4.33,5.74-8.94,10.45-13.84
	c4.71-5.08,10.36-9.32,16.95-12.71c6.77-3.58,14.3-5.37,22.59-5.37c13.55,0,23.81,2.92,30.78,8.75
	c7.15,5.84,12.05,13.65,14.68,23.44c2.64,9.6,3.96,20.33,3.96,32.19v72.29c0,4.9-1.6,9.04-4.8,12.43c-3.2,3.2-7.25,4.8-12.15,4.8
	c-4.89,0-8.94-1.6-12.14-4.8c-3.2-3.39-4.8-7.53-4.8-12.43v-72.29c0-6.21-0.75-11.77-2.26-16.66c-1.5-5.08-4.23-9.13-8.19-12.14
	c-3.95-3.01-9.6-4.52-16.94-4.52c-7.16,0-13.28,1.51-18.36,4.52c-5.08,3.01-8.94,7.06-11.58,12.14c-2.45,4.9-3.67,10.45-3.67,16.66
	v72.29c0,4.9-1.6,9.04-4.8,12.43c-3.2,3.2-7.25,4.8-12.14,4.8c-4.89,0-8.94-1.6-12.14-4.8c-3.2-3.39-4.8-7.53-4.8-12.43v-72.29
	c0-6.21-0.75-11.77-2.26-16.66c-1.51-5.08-4.24-9.13-8.19-12.14c-3.95-3.01-9.6-4.52-16.94-4.52c-7.15,0-13.27,1.51-18.36,4.52
	c-5.08,3.01-8.94,7.06-11.58,12.14c-2.45,4.9-3.67,10.45-3.67,16.66v72.29c0,4.9-1.6,9.04-4.8,12.43c-3.2,3.2-7.25,4.8-12.14,4.8
	s-8.94-1.6-12.14-4.8c-3.2-3.39-4.8-7.53-4.8-12.43V148.14c0-4.9,1.6-8.94,4.8-12.14c3.2-3.39,7.25-5.08,12.14-5.08
	s8.94,1.69,12.14,5.08c3.2,3.2,4.8,7.25,4.8,12.14v12.14l-4.24-0.85c1.69-3.2,4.05-6.59,7.06-10.17c3.01-3.76,6.68-7.25,11.01-10.45
	c4.33-3.2,9.13-5.74,14.4-7.62C933.32,129.13,939.06,128.09,945.27,128.09z M1146.87,264.77c0,4.9-1.6,9.04-4.8,12.43
	c-3.2,3.2-7.25,4.8-12.14,4.8c-4.9,0-8.95-1.6-12.15-4.8c-3.2-3.39-4.8-7.53-4.8-12.43V148.14c0-4.9,1.6-8.94,4.8-12.14
	c3.2-3.39,7.25-5.08,12.15-5.08c4.89,0,8.94,1.69,12.14,5.08c3.2,3.2,4.8,7.25,4.8,12.14V264.77z M1129.64,112.56
	c-6.4,0-10.92-1.03-13.55-3.11c-2.64-2.07-3.95-5.74-3.95-11.01v-5.37c0-5.46,1.41-9.13,4.23-11.01c3.01-2.07,7.53-3.11,13.56-3.11
	c6.59,0,11.2,1.04,13.83,3.11c2.64,2.07,3.96,5.74,3.96,11.01v5.37c0,5.46-1.41,9.22-4.24,11.3
	C1140.66,111.62,1136.04,112.56,1129.64,112.56z M1251.17,128.09c13.93,0,24.47,2.92,31.63,8.75c7.34,5.84,12.33,13.65,14.96,23.44
	c2.83,9.6,4.24,20.33,4.24,32.19v72.29c0,4.9-1.6,9.04-4.8,12.43c-3.2,3.2-7.25,4.8-12.14,4.8c-4.9,0-8.95-1.6-12.15-4.8
	c-3.2-3.39-4.8-7.53-4.8-12.43v-72.29c0-6.21-0.84-11.77-2.54-16.66c-1.51-5.08-4.33-9.13-8.47-12.14
	c-4.14-3.01-10.07-4.52-17.79-4.52c-7.53,0-13.93,1.51-19.21,4.52c-5.08,3.01-9.03,7.06-11.86,12.14
	c-2.63,4.9-3.95,10.45-3.95,16.66v72.29c0,4.9-1.6,9.04-4.8,12.43c-3.2,3.2-7.25,4.8-12.14,4.8c-4.9,0-8.95-1.6-12.15-4.8
	c-3.2-3.39-4.8-7.53-4.8-12.43V148.14c0-4.9,1.6-8.94,4.8-12.14c3.2-3.39,7.25-5.08,12.15-5.08c4.89,0,8.94,1.69,12.14,5.08
	c3.2,3.2,4.8,7.25,4.8,12.14v12.14l-4.24-0.85c1.7-3.2,4.15-6.59,7.35-10.17c3.2-3.76,6.96-7.25,11.29-10.45
	c4.33-3.2,9.23-5.74,14.69-7.62C1238.84,129.13,1244.77,128.09,1251.17,128.09z M1451.02,128.09c4.9,0,8.95,1.6,12.15,4.8
	c3.2,3.2,4.8,7.34,4.8,12.42v119.46c0,4.9-1.6,9.04-4.8,12.43c-3.2,3.2-7.25,4.8-12.15,4.8c-4.89,0-8.94-1.6-12.14-4.8
	c-3.2-3.39-4.8-7.53-4.8-12.43v-13.84l6.21,2.54c0,2.45-1.32,5.46-3.95,9.04c-2.64,3.39-6.21,6.78-10.73,10.17s-9.89,6.31-16.1,8.75
	c-6.02,2.26-12.61,3.39-19.77,3.39c-12.99,0-24.75-3.3-35.3-9.88c-10.54-6.78-18.92-16-25.13-27.68
	c-6.03-11.86-9.04-25.42-9.04-40.67c0-15.44,3.01-28.99,9.04-40.66c6.21-11.86,14.5-21.09,24.85-27.68
	c10.36-6.78,21.84-10.17,34.45-10.17c8.1,0,15.54,1.22,22.31,3.67c6.78,2.45,12.62,5.55,17.51,9.32c5.09,3.77,8.94,7.62,11.58,11.58
	c2.82,3.76,4.24,6.97,4.24,9.6l-10.17,3.67v-20.62c0-4.89,1.6-8.94,4.8-12.14C1442.08,129.79,1446.13,128.09,1451.02,128.09z
	 M1393.98,253.76c8.28,0,15.53-2.07,21.74-6.21c6.22-4.14,11.02-9.79,14.41-16.94c3.57-7.15,5.36-15.15,5.36-24
	c0-9.04-1.79-17.13-5.36-24.29c-3.39-7.15-8.19-12.8-14.41-16.94c-6.21-4.14-13.46-6.21-21.74-6.21c-8.1,0-15.25,2.07-21.46,6.21
	c-6.22,4.14-11.11,9.79-14.69,16.94c-3.39,7.15-5.08,15.25-5.08,24.29c0,8.85,1.69,16.85,5.08,24c3.58,7.15,8.47,12.8,14.69,16.94
	C1378.73,251.69,1385.88,253.76,1393.98,253.76z M1508.33,281.72c-5.46,0-9.69-1.41-12.71-4.24c-2.82-3.01-4.23-7.25-4.23-12.71
	v-4.8c0-5.46,1.41-9.6,4.23-12.43c3.02-3.01,7.25-4.52,12.71-4.52h3.67c5.46,0,9.6,1.51,12.43,4.52c3.01,2.82,4.52,6.97,4.52,12.43
	v4.8c0,5.46-1.51,9.7-4.52,12.71c-2.83,2.82-6.97,4.24-12.43,4.24H1508.33z"/>
<g id="Layer">
	<linearGradient id="SVGID_5_" gradientUnits="userSpaceOnUse" x1="168.1937" y1="109.5643" x2="34.6671" y2="267.9021">
		<stop  offset="0" style="stop-color:#C14E97"/>
		<stop  offset="0.1613" style="stop-color:#C524C5"/>
		<stop  offset="0.2874" style="stop-color:#C70AE1"/>
		<stop  offset="0.3597" style="stop-color:#C800EC"/>
		<stop  offset="0.4079" style="stop-color:#BB00E4"/>
		<stop  offset="0.4962" style="stop-color:#9A00CD"/>
		<stop  offset="0.614" style="stop-color:#6501AA"/>
		<stop  offset="0.7081" style="stop-color:#35018A"/>
		<stop  offset="0.9903" style="stop-color:#35018A"/>
	</linearGradient>
	<path class="st4" d="M90.69,83.44c8.84-5.71,20.2-5.71,29.03,0.01l76.78,49.69c10.08,6.52,14.57,18.97,10.98,30.43L178.8,255.1
		c-3.49,11.15-13.82,18.74-25.51,18.74H57.25c-11.66,0-21.97-7.56-25.49-18.67L2.82,163.62c-3.63-11.48,0.87-23.97,10.98-30.51
		L90.69,83.44z M135.77,154.3c-16.83-16.83-44.11-16.83-60.94,0s-16.83,44.11,0,60.94s44.11,16.83,60.94,0
		S152.6,171.13,135.77,154.3z"/>
	<g>
		<linearGradient id="SVGID_6_" gradientUnits="userSpaceOnUse" x1="122.9698" y1="81.9" x2="75.3505" y2="279.7357">
			<stop  offset="0" style="stop-color:#EE64F8"/>
			<stop  offset="1" style="stop-color:#6F2B92"/>
		</linearGradient>
		<path class="st5" d="M90.65,83.37c2.81-1.79,5.94-3.12,9.21-3.79c3.27-0.66,6.67-0.76,9.97-0.17c1.66,0.25,3.27,0.74,4.85,1.29
			c1.55,0.62,3.1,1.29,4.51,2.19c2.84,1.76,5.61,3.58,8.42,5.37l33.61,21.56l33.61,21.56l2.1,1.35c0.69,0.5,1.41,0.95,2.07,1.49
			c1.32,1.07,2.58,2.22,3.68,3.52c2.22,2.57,4,5.55,5.12,8.76c1.13,3.21,1.66,6.64,1.56,10.05c0.01,0.85-0.13,1.7-0.19,2.55
			c-0.12,0.84-0.28,1.68-0.44,2.52c-0.22,0.82-0.42,1.66-0.67,2.46l-0.74,2.38l-23.57,76.3l-2.95,9.54
			c-0.5,1.59-0.95,3.16-1.56,4.81c-0.29,0.82-0.69,1.59-1.03,2.38c-0.41,0.76-0.81,1.53-1.26,2.27c-1.83,2.94-4.2,5.55-6.97,7.65
			c-2.77,2.09-5.95,3.63-9.29,4.57c-0.83,0.27-1.69,0.4-2.54,0.59c-0.85,0.16-1.72,0.23-2.58,0.35c-0.86,0.03-1.75,0.09-2.59,0.1
			l-2.5,0.01l-9.98,0.04l-19.96,0.07l-39.93-0.16l-19.96-0.08c-1.67-0.02-3.3,0.02-5.06-0.09c-0.87-0.02-1.72-0.19-2.58-0.28
			c-0.85-0.15-1.7-0.33-2.54-0.53c-3.35-0.88-6.53-2.37-9.34-4.38c-2.82-2.01-5.2-4.58-7.08-7.47c-0.96-1.44-1.71-3-2.39-4.58
			c-0.29-0.81-0.6-1.63-0.86-2.43l-0.74-2.38l-5.94-19.06L12.2,195.64l-5.94-19.06l-2.97-9.53c-0.49-1.6-1.02-3.15-1.43-4.82
			c-0.43-1.65-0.65-3.34-0.78-5.03c-0.36-6.78,1.85-13.68,6.21-18.88c0.56-0.64,1.09-1.3,1.71-1.87l0.91-0.89
			c0.31-0.28,0.65-0.54,0.97-0.82c0.63-0.56,1.33-1.05,2.02-1.53c0.69-0.5,1.39-0.93,2.09-1.38l8.41-5.38L90.65,83.37z M90.73,83.5
			l-67.06,43.36l-8.38,5.42c-0.7,0.46-1.41,0.89-2.07,1.38c-0.68,0.47-1.36,0.95-1.98,1.5c-0.32,0.27-0.64,0.53-0.95,0.81
			l-0.88,0.88c-0.61,0.56-1.12,1.22-1.67,1.84c-4.25,5.11-6.38,11.87-6,18.48c0.14,1.65,0.35,3.3,0.78,4.9
			c0.4,1.61,0.95,3.18,1.44,4.77l3.01,9.52l6.02,19.03l12.05,38.07l6.02,19.03l0.75,2.38c0.26,0.79,0.55,1.56,0.84,2.34
			c0.66,1.52,1.39,3.01,2.32,4.38c1.81,2.77,4.11,5.23,6.82,7.14c2.7,1.91,5.75,3.33,8.96,4.16c0.81,0.18,1.62,0.35,2.43,0.49
			c0.82,0.08,1.64,0.24,2.47,0.26c1.65,0.1,3.32,0.06,4.98,0.06l19.96,0l39.93-0.01l19.96,0l9.98,0l2.5,0
			c0.83-0.01,1.65-0.06,2.48-0.09c0.82-0.11,1.65-0.17,2.46-0.32c0.81-0.18,1.63-0.29,2.42-0.55c3.19-0.89,6.22-2.34,8.87-4.32
			c2.64-1.99,4.92-4.47,6.68-7.27c0.44-0.7,0.82-1.44,1.22-2.16c0.33-0.76,0.71-1.5,0.99-2.27c0.59-1.55,1.06-3.15,1.56-4.73
			l2.99-9.53l23.89-76.2l0.75-2.38c0.24-0.79,0.44-1.6,0.66-2.4c0.15-0.81,0.32-1.63,0.43-2.45c0.06-0.83,0.2-1.65,0.2-2.48
			c0.11-3.31-0.39-6.64-1.47-9.77c-1.08-3.13-2.8-6.04-4.95-8.55c-1.06-1.27-2.29-2.4-3.57-3.45c-1.3-1.02-2.7-1.93-4.1-2.82
			l-33.52-21.7l-33.52-21.7c-2.8-1.8-5.57-3.64-8.39-5.4c-1.4-0.9-2.92-1.57-4.46-2.19c-1.56-0.55-3.15-1.04-4.8-1.3
			c-3.27-0.6-6.64-0.51-9.89,0.12C96.64,80.42,93.53,81.73,90.73,83.5z"/>
		<linearGradient id="SVGID_7_" gradientUnits="userSpaceOnUse" x1="115.5498" y1="142.1335" x2="95.0265" y2="227.3982">
			<stop  offset="0" style="stop-color:#EE64F8"/>
			<stop  offset="1" style="stop-color:#6F2B92"/>
		</linearGradient>
		<path class="st6" d="M135.72,154.35c-4.01-3.95-8.79-7.12-13.99-9.24c-5.2-2.12-10.82-3.2-16.43-3.18
			c-5.61,0.04-11.19,1.26-16.31,3.46c-5.13,2.2-9.78,5.43-13.66,9.4c-3.86,3.99-6.93,8.71-8.96,13.84c-2.05,5.12-3.02,10.64-3,16.13
			c0.03,5.49,1.15,10.96,3.28,16.01c2.12,5.05,5.25,9.65,9.13,13.51c3.85,3.88,8.46,7.01,13.51,9.13
			c5.05,2.13,10.52,3.25,16.01,3.28c5.49,0.04,11-0.94,16.13-2.99c5.13-2.03,9.85-5.1,13.84-8.97c3.97-3.88,7.2-8.53,9.4-13.66
			c2.2-5.12,3.42-10.7,3.46-16.31c0.03-5.61-1.05-11.22-3.18-16.43C142.84,163.14,139.67,158.36,135.72,154.35z M135.83,154.24
			c3.99,4,7.2,8.78,9.36,14c2.17,5.22,3.29,10.87,3.3,16.52c0,5.65-1.12,11.31-3.28,16.53c-2.16,5.23-5.36,10.01-9.35,14.02
			c-4,3.99-8.79,7.21-14.01,9.37c-5.22,2.17-10.88,3.29-16.54,3.3c-5.66,0-11.32-1.12-16.54-3.28c-5.23-2.16-10.02-5.37-14.03-9.36
			c-3.99-4.01-7.21-8.8-9.36-14.03c-2.17-5.23-3.28-10.89-3.28-16.54c0.01-5.66,1.13-11.31,3.3-16.54
			c2.16-5.23,5.38-10.01,9.37-14.01c4.01-3.99,8.79-7.2,14.02-9.35c5.22-2.16,10.88-3.28,16.53-3.28c5.65,0.01,11.3,1.13,16.52,3.3
			C127.05,147.04,131.82,150.25,135.83,154.24z"/>
	</g>
</g>
<linearGradient id="SVGID_8_" gradientUnits="userSpaceOnUse" x1="33.2209" y1="261.0751" x2="176.9515" y2="111.9385">
	<stop  offset="0.2644" style="stop-color:#4D357F"/>
	<stop  offset="0.2996" style="stop-color:#563187"/>
	<stop  offset="0.5147" style="stop-color:#871CB2"/>
	<stop  offset="0.7037" style="stop-color:#AA0DD2"/>
	<stop  offset="0.8575" style="stop-color:#C003E5"/>
	<stop  offset="0.9568" style="stop-color:#C800EC"/>
</linearGradient>
<path class="st7" d="M170.43,255.99c-6.94-17.79-17.01-34.17-27.58-50.07c-1.88,3.34-4.24,6.48-7.08,9.32
	c-16.83,16.83-44.11,16.83-60.94,0C58,198.41,58,171.13,74.83,154.3c2.35-2.35,4.92-4.36,7.62-6.06
	c-21.77-6.33-43.68-12.16-65.87-16.92l-2.78,1.79c-10.12,6.53-14.61,19.03-10.98,30.51l28.94,91.55
	c3.52,11.12,13.83,18.67,25.49,18.67h96.04c7.91,0,15.19-3.49,20.16-9.19C172.55,261.75,171.55,258.86,170.43,255.99z"/>
</svg>
